<?xml version="1.0" encoding="UTF-8" standalone="no"?>
<!DOCTYPE svg PUBLIC "-//W3C//DTD SVG 1.1//EN"
 "http://www.w3.org/Graphics/SVG/1.1/DTD/svg11.dtd">
<!-- Generated by graphviz version 2.40.1 (20161225.0304)
 -->
<!-- Title: %3 Pages: 1 -->
<svg width="1340pt" height="1119pt"
 viewBox="0.00 0.00 1340.32 1119.00" xmlns="http://www.w3.org/2000/svg" xmlns:xlink="http://www.w3.org/1999/xlink">
<g id="graph0" class="graph" transform="scale(1 1) rotate(0) translate(4 1115)">
<title>%3</title>
<polygon fill="#ffffff" stroke="transparent" points="-4,4 -4,-1115 1336.3183,-1115 1336.3183,4 -4,4"/>
<text text-anchor="middle" x="666.1592" y="-7.8" font-family="Times,serif" font-size="14.00" fill="#000000">Convey field types (dashed nodes = identifiable automatically)</text>
<!-- source_ip -->
<g id="node1" class="node">
<title>source_ip</title>
<ellipse fill="none" stroke="#000000" stroke-dasharray="5,2" cx="60.4446" cy="-592" rx="44.6926" ry="18"/>
<text text-anchor="middle" x="60.4446" y="-588.3" font-family="Times,serif" font-size="14.00" fill="#000000">source_ip</text>
</g>
<!-- ip -->
<g id="node2" class="node">
<title>ip</title>
<ellipse fill="none" stroke="#000000" stroke-dasharray="5,2" cx="239.5334" cy="-511" rx="27" ry="18"/>
<text text-anchor="middle" x="239.5334" y="-507.3" font-family="Times,serif" font-size="14.00" fill="#000000">ip</text>
</g>
<!-- source_ip&#45;&gt;ip -->
<g id="edge1" class="edge">
<title>source_ip&#45;&gt;ip</title>
<path fill="none" stroke="#000000" stroke-dasharray="5,2" d="M90.5937,-578.5827C100.275,-574.2608 111.0406,-569.4409 120.8893,-565 150.4452,-551.6729 184.077,-536.3508 207.9668,-525.4401"/>
<polygon fill="#000000" stroke="#000000" points="209.6093,-528.5377 217.2503,-521.1984 206.7002,-522.1708 209.6093,-528.5377"/>
</g>
<!-- url -->
<g id="node6" class="node">
<title>url</title>
<ellipse fill="none" stroke="#000000" stroke-dasharray="5,2" cx="371.425" cy="-403" rx="27" ry="18"/>
<text text-anchor="middle" x="371.425" y="-399.3" font-family="Times,serif" font-size="14.00" fill="#000000">url</text>
</g>
<!-- ip&#45;&gt;url -->
<g id="edge28" class="edge">
<title>ip&#45;&gt;url</title>
<path fill="none" stroke="#000000" d="M256.776,-496.8809C279.5844,-478.2041 319.955,-445.1464 346.1954,-423.6594"/>
<polygon fill="#000000" stroke="#000000" points="348.6587,-426.1661 354.1783,-417.1226 344.2238,-420.7501 348.6587,-426.1661"/>
</g>
<!-- whois -->
<g id="node8" class="node">
<title>whois</title>
<polygon fill="none" stroke="#000000" points="990.8945,-178 936.8945,-178 936.8945,-142 990.8945,-142 990.8945,-178"/>
<text text-anchor="middle" x="963.8945" y="-156.3" font-family="Times,serif" font-size="14.00" fill="#000000">whois</text>
</g>
<!-- ip&#45;&gt;whois -->
<g id="edge7" class="edge">
<title>ip&#45;&gt;whois</title>
<path fill="none" stroke="#000000" d="M241.1534,-492.7813C248.8603,-411.625 285.0839,-87 371.425,-87 371.425,-87 371.425,-87 822.9037,-87 855.5025,-87 864.5233,-91.5557 893.7474,-106 909.2313,-113.6531 924.639,-124.9935 937.0534,-135.309"/>
<polygon fill="#000000" stroke="#000000" points="934.8751,-138.0515 944.7499,-141.8907 939.4246,-132.7314 934.8751,-138.0515"/>
</g>
<!-- nmap -->
<g id="node55" class="node">
<title>nmap</title>
<polygon fill="none" stroke="#000000" points="849.9037,-648 795.9037,-648 795.9037,-612 849.9037,-612 849.9037,-648"/>
<text text-anchor="middle" x="822.9037" y="-626.3" font-family="Times,serif" font-size="14.00" fill="#000000">nmap</text>
</g>
<!-- ip&#45;&gt;nmap -->
<g id="edge60" class="edge">
<title>ip&#45;&gt;nmap</title>
<path fill="none" stroke="#000000" d="M263.5947,-519.6266C324.5926,-541.0582 490.6265,-596.6717 634.06,-620 686.1923,-628.4789 747.379,-630.2503 785.6526,-630.396"/>
<polygon fill="#000000" stroke="#000000" points="785.8128,-633.896 795.8136,-630.3983 785.8144,-626.896 785.8128,-633.896"/>
</g>
<!-- destination_ip -->
<g id="node3" class="node">
<title>destination_ip</title>
<ellipse fill="none" stroke="#000000" stroke-dasharray="5,2" cx="60.4446" cy="-538" rx="60.3893" ry="18"/>
<text text-anchor="middle" x="60.4446" y="-534.3" font-family="Times,serif" font-size="14.00" fill="#000000">destination_ip</text>
</g>
<!-- destination_ip&#45;&gt;ip -->
<g id="edge2" class="edge">
<title>destination_ip&#45;&gt;ip</title>
<path fill="none" stroke="#000000" stroke-dasharray="5,2" d="M114.6632,-529.8258C143.256,-525.5151 177.5718,-520.3415 202.9882,-516.5097"/>
<polygon fill="#000000" stroke="#000000" points="203.5822,-519.9598 212.9486,-515.008 202.5385,-513.038 203.5822,-519.9598"/>
</g>
<!-- any_ip -->
<g id="node4" class="node">
<title>any_ip</title>
<ellipse fill="none" stroke="#000000" stroke-dasharray="5,2" cx="60.4446" cy="-484" rx="34.394" ry="18"/>
<text text-anchor="middle" x="60.4446" y="-480.3" font-family="Times,serif" font-size="14.00" fill="#000000">any_ip</text>
</g>
<!-- any_ip&#45;&gt;ip -->
<g id="edge3" class="edge">
<title>any_ip&#45;&gt;ip</title>
<path fill="none" stroke="#000000" d="M93.7102,-489.0152C124.7006,-493.6874 170.8155,-500.6399 202.8585,-505.4708"/>
<polygon fill="#000000" stroke="#000000" points="202.7336,-508.9914 213.1436,-507.0214 203.7772,-502.0696 202.7336,-508.9914"/>
</g>
<!-- port_ip -->
<g id="node5" class="node">
<title>port_ip</title>
<ellipse fill="none" stroke="#000000" stroke-dasharray="5,2" cx="60.4446" cy="-430" rx="36.2938" ry="18"/>
<text text-anchor="middle" x="60.4446" y="-426.3" font-family="Times,serif" font-size="14.00" fill="#000000">port_ip</text>
</g>
<!-- port_ip&#45;&gt;ip -->
<g id="edge4" class="edge">
<title>port_ip&#45;&gt;ip</title>
<path fill="none" stroke="#000000" d="M87.5431,-442.056C97.974,-446.7094 109.9928,-452.0867 120.8893,-457 150.4452,-470.3271 184.077,-485.6492 207.9668,-496.5599"/>
<polygon fill="#000000" stroke="#000000" points="206.7002,-499.8292 217.2503,-500.8016 209.6093,-493.4623 206.7002,-499.8292"/>
</g>
<!-- hostname -->
<g id="node7" class="node">
<title>hostname</title>
<ellipse fill="none" stroke="#000000" stroke-dasharray="5,2" cx="545.8662" cy="-511" rx="44.6926" ry="18"/>
<text text-anchor="middle" x="545.8662" y="-507.3" font-family="Times,serif" font-size="14.00" fill="#000000">hostname</text>
</g>
<!-- url&#45;&gt;hostname -->
<g id="edge5" class="edge">
<title>url&#45;&gt;hostname</title>
<path fill="none" stroke="#000000" d="M400.365,-420.9173C431.2766,-440.0553 480.1934,-470.3407 512.6535,-490.4373"/>
<polygon fill="#000000" stroke="#000000" points="401.7805,-417.6772 391.4356,-415.389 398.0956,-423.6288 401.7805,-417.6772"/>
<polygon fill="#000000" stroke="#000000" points="510.999,-493.5295 521.3438,-495.8177 514.6838,-487.5778 510.999,-493.5295"/>
</g>
<!-- web -->
<g id="node30" class="node">
<title>web</title>
<polygon fill="none" stroke="#000000" points="572.8662,-313 518.8662,-313 518.8662,-277 572.8662,-277 572.8662,-313"/>
<text text-anchor="middle" x="545.8662" y="-291.3" font-family="Times,serif" font-size="14.00" fill="#000000">web</text>
</g>
<!-- url&#45;&gt;web -->
<g id="edge29" class="edge">
<title>url&#45;&gt;web</title>
<path fill="none" stroke="#000000" d="M391.4356,-390.611C420.3109,-372.7338 474.1225,-339.4179 509.9739,-317.2216"/>
<polygon fill="#000000" stroke="#000000" points="512.0156,-320.0741 518.6756,-311.8342 508.3308,-314.1224 512.0156,-320.0741"/>
</g>
<!-- hostname&#45;&gt;ip -->
<g id="edge6" class="edge">
<title>hostname&#45;&gt;ip</title>
<path fill="none" stroke="#000000" d="M500.8728,-511C440.2546,-511 333.4628,-511 276.9854,-511"/>
<polygon fill="#000000" stroke="#000000" points="276.7185,-507.5001 266.7184,-511 276.7184,-514.5001 276.7185,-507.5001"/>
</g>
<!-- dns -->
<g id="node37" class="node">
<title>dns</title>
<polygon fill="none" stroke="#000000" points="849.9037,-529 795.9037,-529 795.9037,-493 849.9037,-493 849.9037,-529"/>
<text text-anchor="middle" x="822.9037" y="-507.3" font-family="Times,serif" font-size="14.00" fill="#000000">dns</text>
</g>
<!-- hostname&#45;&gt;dns -->
<g id="edge36" class="edge">
<title>hostname&#45;&gt;dns</title>
<path fill="none" stroke="#000000" d="M590.9936,-511C645.2446,-511 735.2699,-511 785.7142,-511"/>
<polygon fill="#000000" stroke="#000000" points="785.8506,-514.5001 795.8506,-511 785.8506,-507.5001 785.8506,-514.5001"/>
</g>
<!-- tld -->
<g id="node48" class="node">
<title>tld</title>
<ellipse fill="none" stroke="#000000" cx="822.9037" cy="-457" rx="27" ry="18"/>
<text text-anchor="middle" x="822.9037" y="-453.3" font-family="Times,serif" font-size="14.00" fill="#000000">tld</text>
</g>
<!-- hostname&#45;&gt;tld -->
<g id="edge49" class="edge">
<title>hostname&#45;&gt;tld</title>
<path fill="none" stroke="#000000" d="M586.4465,-503.0901C640.4392,-492.5659 735.0771,-474.1191 786.7399,-464.049"/>
<polygon fill="#000000" stroke="#000000" points="787.6327,-467.441 796.7783,-462.0923 786.2934,-460.5703 787.6327,-467.441"/>
<text text-anchor="middle" x="684.06" y="-497" font-family="Times,serif" font-size="10.00" fill="#000000">choose all,ccTLD,gTLD</text>
</g>
<!-- hostname&#45;&gt;nmap -->
<g id="edge58" class="edge">
<title>hostname&#45;&gt;nmap</title>
<path fill="none" stroke="#000000" d="M559.0299,-528.5753C574.6622,-548.0868 602.6112,-578.9398 634.06,-595 659.9421,-608.2174 738.1354,-619.6627 785.3996,-625.6209"/>
<polygon fill="#000000" stroke="#000000" points="785.2027,-629.1232 795.5567,-626.877 786.0619,-622.1761 785.2027,-629.1232"/>
</g>
<!-- prefix -->
<g id="node10" class="node">
<title>prefix</title>
<ellipse fill="none" stroke="#000000" cx="1102.9354" cy="-504" rx="31.6951" ry="18"/>
<text text-anchor="middle" x="1102.9354" y="-500.3" font-family="Times,serif" font-size="14.00" fill="#000000">prefix</text>
</g>
<!-- whois&#45;&gt;prefix -->
<g id="edge9" class="edge">
<title>whois&#45;&gt;prefix</title>
<path fill="none" stroke="#000000" d="M990.1236,-178.0773C992.7792,-180.8043 995.1788,-183.7902 997.0415,-187 1009.6484,-208.7234 1024.2966,-386.851 1034.0415,-410 1045.2061,-436.5213 1065.2284,-462.5861 1080.8211,-480.5165"/>
<polygon fill="#000000" stroke="#000000" points="1078.3605,-483.0162 1087.6258,-488.1548 1083.5872,-478.3598 1078.3605,-483.0162"/>
</g>
<!-- asn -->
<g id="node11" class="node">
<title>asn</title>
<ellipse fill="none" stroke="#000000" stroke-dasharray="5,2" cx="1102.9354" cy="-295" rx="27" ry="18"/>
<text text-anchor="middle" x="1102.9354" y="-291.3" font-family="Times,serif" font-size="14.00" fill="#000000">asn</text>
</g>
<!-- whois&#45;&gt;asn -->
<g id="edge10" class="edge">
<title>whois&#45;&gt;asn</title>
<path fill="none" stroke="#000000" d="M988.9986,-178.2925C991.9129,-181.0186 994.6817,-183.9459 997.0415,-187 1021.2407,-218.3181 1005.297,-240.7939 1034.0415,-268 1043.2258,-276.6928 1055.5334,-282.6925 1067.2044,-286.7851"/>
<polygon fill="#000000" stroke="#000000" points="1066.1865,-290.1339 1076.7758,-289.7915 1068.2842,-283.4556 1066.1865,-290.1339"/>
</g>
<!-- abusemail -->
<g id="node12" class="node">
<title>abusemail</title>
<ellipse fill="none" stroke="#000000" cx="1102.9354" cy="-383" rx="46.5926" ry="18"/>
<text text-anchor="middle" x="1102.9354" y="-379.3" font-family="Times,serif" font-size="14.00" fill="#000000">abusemail</text>
</g>
<!-- whois&#45;&gt;abusemail -->
<g id="edge11" class="edge">
<title>whois&#45;&gt;abusemail</title>
<path fill="none" stroke="#000000" d="M989.8072,-178.272C992.5171,-180.9656 995.0159,-183.8905 997.0415,-187 1005.5309,-200.032 1025.8221,-308.7961 1034.0415,-322 1043.48,-337.1623 1057.8138,-350.7151 1070.9671,-361.1725"/>
<polygon fill="#000000" stroke="#000000" points="1068.8787,-363.9815 1078.9501,-367.2705 1073.1279,-358.4187 1068.8787,-363.9815"/>
</g>
<!-- country -->
<g id="node13" class="node">
<title>country</title>
<ellipse fill="none" stroke="#000000" cx="1102.9354" cy="-241" rx="37.8943" ry="18"/>
<text text-anchor="middle" x="1102.9354" y="-237.3" font-family="Times,serif" font-size="14.00" fill="#000000">country</text>
</g>
<!-- whois&#45;&gt;country -->
<g id="edge12" class="edge">
<title>whois&#45;&gt;country</title>
<path fill="none" stroke="#000000" d="M985.8686,-178.0076C1002.5395,-191.4587 1024.2094,-208.4384 1034.0415,-214 1042.7553,-218.929 1052.5481,-223.3591 1061.9555,-227.1373"/>
<polygon fill="#000000" stroke="#000000" points="1060.9683,-230.5076 1071.5581,-230.8322 1063.4821,-223.9745 1060.9683,-230.5076"/>
</g>
<!-- netname -->
<g id="node14" class="node">
<title>netname</title>
<ellipse fill="none" stroke="#000000" cx="1102.9354" cy="-187" rx="40.8928" ry="18"/>
<text text-anchor="middle" x="1102.9354" y="-183.3" font-family="Times,serif" font-size="14.00" fill="#000000">netname</text>
</g>
<!-- whois&#45;&gt;netname -->
<g id="edge13" class="edge">
<title>whois&#45;&gt;netname</title>
<path fill="none" stroke="#000000" d="M991.033,-165.27C1009.3174,-168.8206 1033.9267,-173.5994 1055.4112,-177.7714"/>
<polygon fill="#000000" stroke="#000000" points="1054.8623,-181.2301 1065.3462,-179.7006 1056.1967,-174.3585 1054.8623,-181.2301"/>
</g>
<!-- csirt_contact -->
<g id="node15" class="node">
<title>csirt_contact</title>
<ellipse fill="none" stroke="#000000" cx="1102.9354" cy="-133" rx="55.7903" ry="18"/>
<text text-anchor="middle" x="1102.9354" y="-129.3" font-family="Times,serif" font-size="14.00" fill="#000000">csirt_contact</text>
</g>
<!-- whois&#45;&gt;csirt_contact -->
<g id="edge14" class="edge">
<title>whois&#45;&gt;csirt_contact</title>
<path fill="none" stroke="#000000" d="M991.033,-154.73C1006.4408,-151.738 1026.3399,-147.8739 1045.0759,-144.2356"/>
<polygon fill="#000000" stroke="#000000" points="1045.8828,-147.6444 1055.0322,-142.3022 1044.5483,-140.7727 1045.8828,-147.6444"/>
</g>
<!-- incident_contact -->
<g id="node16" class="node">
<title>incident_contact</title>
<ellipse fill="none" stroke="#000000" cx="1102.9354" cy="-79" rx="68.7879" ry="18"/>
<text text-anchor="middle" x="1102.9354" y="-75.3" font-family="Times,serif" font-size="14.00" fill="#000000">incident_contact</text>
</g>
<!-- whois&#45;&gt;incident_contact -->
<g id="edge15" class="edge">
<title>whois&#45;&gt;incident_contact</title>
<path fill="none" stroke="#000000" d="M984.2906,-141.8055C997.7372,-130.4595 1016.1163,-116.1395 1034.0415,-106 1039.5449,-102.8869 1045.4788,-99.9729 1051.4741,-97.2964"/>
<polygon fill="#000000" stroke="#000000" points="1053.0598,-100.4255 1060.8929,-93.2915 1050.3207,-93.9836 1053.0598,-100.4255"/>
</g>
<!-- cidr -->
<g id="node9" class="node">
<title>cidr</title>
<ellipse fill="none" stroke="#000000" stroke-dasharray="5,2" cx="1270.5738" cy="-619" rx="27" ry="18"/>
<text text-anchor="middle" x="1270.5738" y="-615.3" font-family="Times,serif" font-size="14.00" fill="#000000">cidr</text>
</g>
<!-- cidr&#45;&gt;ip -->
<g id="edge8" class="edge">
<title>cidr&#45;&gt;ip</title>
<path fill="none" stroke="#000000" d="M1250.1659,-630.8104C1219.3382,-647.5061 1158.5753,-676 1102.9354,-676 371.425,-676 371.425,-676 371.425,-676 301.8975,-676 263.0142,-585.5039 247.5191,-538.5512"/>
<polygon fill="#000000" stroke="#000000" points="250.8409,-537.4472 244.4832,-528.972 244.168,-539.5621 250.8409,-537.4472"/>
</g>
<!-- prefix&#45;&gt;cidr -->
<g id="edge50" class="edge">
<title>prefix&#45;&gt;cidr</title>
<path fill="none" stroke="#000000" d="M1123.4912,-518.1013C1153.588,-538.7477 1209.7017,-577.2417 1243.2428,-600.2509"/>
<polygon fill="#000000" stroke="#000000" points="1241.4331,-603.2539 1251.6593,-606.0246 1245.393,-597.4815 1241.4331,-603.2539"/>
</g>
<!-- email -->
<g id="node45" class="node">
<title>email</title>
<ellipse fill="none" stroke="#000000" stroke-dasharray="5,2" cx="1270.5738" cy="-521" rx="30.5947" ry="18"/>
<text text-anchor="middle" x="1270.5738" y="-517.3" font-family="Times,serif" font-size="14.00" fill="#000000">email</text>
</g>
<!-- abusemail&#45;&gt;email -->
<g id="edge44" class="edge">
<title>abusemail&#45;&gt;email</title>
<path fill="none" stroke="#000000" stroke-dasharray="5,2" d="M1122.824,-399.3723C1153.2066,-424.3832 1211.1803,-472.1072 1244.766,-499.755"/>
<polygon fill="#000000" stroke="#000000" points="1242.8027,-502.6721 1252.7477,-506.3255 1247.2516,-497.2677 1242.8027,-502.6721"/>
</g>
<!-- country_name -->
<g id="node46" class="node">
<title>country_name</title>
<ellipse fill="none" stroke="#000000" cx="1270.5738" cy="-92" rx="61.99" ry="18"/>
<text text-anchor="middle" x="1270.5738" y="-88.3" font-family="Times,serif" font-size="14.00" fill="#000000">country_name</text>
</g>
<!-- country&#45;&gt;country_name -->
<g id="edge47" class="edge">
<title>country&#45;&gt;country_name</title>
<path fill="none" stroke="#000000" d="M1145.3738,-228.3463C1154.5704,-224.5452 1163.9053,-219.8011 1171.8293,-214 1207.5835,-187.8249 1237.7582,-145.6758 1255.0147,-118.4087"/>
<polygon fill="#000000" stroke="#000000" points="1143.993,-225.1271 1135.9051,-231.9709 1146.4955,-231.6645 1143.993,-225.1271"/>
<polygon fill="#000000" stroke="#000000" points="1258.071,-120.1211 1260.3611,-109.7767 1252.12,-116.4352 1258.071,-120.1211"/>
</g>
<!-- plaintext -->
<g id="node17" class="node">
<title>plaintext</title>
<ellipse fill="none" stroke="#000000" stroke-dasharray="5,2" cx="239.5334" cy="-877" rx="41.6928" ry="18"/>
<text text-anchor="middle" x="239.5334" y="-873.3" font-family="Times,serif" font-size="14.00" fill="#000000">plaintext</text>
</g>
<!-- bytes -->
<g id="node18" class="node">
<title>bytes</title>
<ellipse fill="none" stroke="#000000" cx="371.425" cy="-938" rx="29.4969" ry="18"/>
<text text-anchor="middle" x="371.425" y="-934.3" font-family="Times,serif" font-size="14.00" fill="#000000">bytes</text>
</g>
<!-- plaintext&#45;&gt;bytes -->
<g id="edge16" class="edge">
<title>plaintext&#45;&gt;bytes</title>
<path fill="none" stroke="#000000" d="M279.8058,-892.9392C288.2447,-896.4534 297.0475,-900.2497 305.1776,-904 316.7083,-909.3189 329.1436,-915.5617 340.0917,-921.2363"/>
<polygon fill="#000000" stroke="#000000" points="281.0677,-889.6738 270.4879,-889.1089 278.4062,-896.1481 281.0677,-889.6738"/>
<polygon fill="#000000" stroke="#000000" points="338.7869,-924.5037 349.2698,-926.0394 342.0325,-918.3017 338.7869,-924.5037"/>
</g>
<!-- custom -->
<g id="node22" class="node">
<title>custom</title>
<polygon fill="none" stroke="#000000" points="399.425,-831 343.425,-831 343.425,-795 399.425,-795 399.425,-831"/>
<text text-anchor="middle" x="371.425" y="-809.3" font-family="Times,serif" font-size="14.00" fill="#000000">custom</text>
</g>
<!-- plaintext&#45;&gt;custom -->
<g id="edge20" class="edge">
<title>plaintext&#45;&gt;custom</title>
<path fill="none" stroke="#000000" d="M267.5043,-863.4272C286.8697,-854.0302 312.8629,-841.4171 334.0081,-831.1564"/>
<polygon fill="#000000" stroke="#000000" points="335.5711,-834.2884 343.0398,-826.7738 332.5151,-827.9907 335.5711,-834.2884"/>
</g>
<!-- base64 -->
<g id="node19" class="node">
<title>base64</title>
<ellipse fill="none" stroke="#000000" stroke-dasharray="5,2" cx="545.8662" cy="-1019" rx="35.194" ry="18"/>
<text text-anchor="middle" x="545.8662" y="-1015.3" font-family="Times,serif" font-size="14.00" fill="#000000">base64</text>
</g>
<!-- bytes&#45;&gt;base64 -->
<g id="edge17" class="edge">
<title>bytes&#45;&gt;base64</title>
<path fill="none" stroke="#000000" d="M402.3296,-955.1549C422.8435,-966.2555 450.5242,-980.6918 475.6724,-992 485.7796,-996.5448 496.9006,-1001.0439 507.2522,-1005.028"/>
<polygon fill="#000000" stroke="#000000" points="403.8991,-952.0243 393.4434,-950.3127 400.5496,-958.171 403.8991,-952.0243"/>
<polygon fill="#000000" stroke="#000000" points="506.2915,-1008.4067 516.883,-1008.6747 508.7704,-1001.8603 506.2915,-1008.4067"/>
</g>
<!-- quoted_printable -->
<g id="node20" class="node">
<title>quoted_printable</title>
<ellipse fill="none" stroke="#000000" stroke-dasharray="5,2" cx="545.8662" cy="-965" rx="70.3881" ry="18"/>
<text text-anchor="middle" x="545.8662" y="-961.3" font-family="Times,serif" font-size="14.00" fill="#000000">quoted_printable</text>
</g>
<!-- bytes&#45;&gt;quoted_printable -->
<g id="edge18" class="edge">
<title>bytes&#45;&gt;quoted_printable</title>
<path fill="none" stroke="#000000" d="M409.887,-943.9531C429.1472,-946.9342 453.081,-950.6387 475.476,-954.105"/>
<polygon fill="#000000" stroke="#000000" points="410.258,-940.469 399.8403,-942.3981 409.1872,-947.3866 410.258,-940.469"/>
<polygon fill="#000000" stroke="#000000" points="475.2173,-957.6066 485.635,-955.6774 476.2881,-950.6889 475.2173,-957.6066"/>
</g>
<!-- charset -->
<g id="node26" class="node">
<title>charset</title>
<ellipse fill="none" stroke="#000000" cx="545.8662" cy="-911" rx="35.9954" ry="18"/>
<text text-anchor="middle" x="545.8662" y="-907.3" font-family="Times,serif" font-size="14.00" fill="#000000">charset</text>
</g>
<!-- bytes&#45;&gt;charset -->
<g id="edge24" class="edge">
<title>bytes&#45;&gt;charset</title>
<path fill="none" stroke="#000000" d="M399.6419,-933.13C405.9039,-932.075 412.5106,-930.9818 418.6724,-930 446.0685,-925.6349 476.8336,-921.0312 501.2439,-917.4489"/>
<polygon fill="#000000" stroke="#000000" points="501.8999,-920.8903 511.2881,-915.9798 500.8868,-913.964 501.8999,-920.8903"/>
<text text-anchor="middle" x="438.1724" y="-933" font-family="Times,serif" font-size="10.00" fill="#000000">encoding</text>
</g>
<!-- urlencode -->
<g id="node21" class="node">
<title>urlencode</title>
<ellipse fill="none" stroke="#000000" stroke-dasharray="5,2" cx="60.4446" cy="-891" rx="45.4919" ry="18"/>
<text text-anchor="middle" x="60.4446" y="-887.3" font-family="Times,serif" font-size="14.00" fill="#000000">urlencode</text>
</g>
<!-- urlencode&#45;&gt;plaintext -->
<g id="edge19" class="edge">
<title>urlencode&#45;&gt;plaintext</title>
<path fill="none" stroke="#000000" d="M115.1833,-886.7209C138.4328,-884.9034 165.3898,-882.7961 188.2496,-881.009"/>
<polygon fill="#000000" stroke="#000000" points="114.8711,-883.2345 105.1743,-887.5033 115.4167,-890.2132 114.8711,-883.2345"/>
<polygon fill="#000000" stroke="#000000" points="188.7395,-884.4815 198.4363,-880.2127 188.1939,-877.5028 188.7395,-884.4815"/>
</g>
<!-- external -->
<g id="node23" class="node">
<title>external</title>
<ellipse fill="none" stroke="#000000" cx="545.8662" cy="-857" rx="38.9931" ry="18"/>
<text text-anchor="middle" x="545.8662" y="-853.3" font-family="Times,serif" font-size="14.00" fill="#000000">external</text>
</g>
<!-- custom&#45;&gt;external -->
<g id="edge21" class="edge">
<title>custom&#45;&gt;external</title>
<path fill="none" stroke="#000000" d="M399.452,-820.0694C427.0007,-827.0181 469.4666,-837.7294 501.5834,-845.8304"/>
<polygon fill="#000000" stroke="#000000" points="501.0629,-849.3086 511.6153,-848.3607 502.775,-842.5212 501.0629,-849.3086"/>
</g>
<!-- code -->
<g id="node24" class="node">
<title>code</title>
<ellipse fill="none" stroke="#000000" cx="545.8662" cy="-803" rx="27.0966" ry="18"/>
<text text-anchor="middle" x="545.8662" y="-799.3" font-family="Times,serif" font-size="14.00" fill="#000000">code</text>
</g>
<!-- custom&#45;&gt;code -->
<g id="edge22" class="edge">
<title>custom&#45;&gt;code</title>
<path fill="none" stroke="#000000" d="M399.452,-811.3933C428.9995,-809.6995 475.7074,-807.0219 508.401,-805.1477"/>
<polygon fill="#000000" stroke="#000000" points="508.7006,-808.6364 518.4839,-804.5697 508.2999,-801.6479 508.7006,-808.6364"/>
</g>
<!-- reg -->
<g id="node25" class="node">
<title>reg</title>
<ellipse fill="none" stroke="#000000" cx="545.8662" cy="-749" rx="27" ry="18"/>
<text text-anchor="middle" x="545.8662" y="-745.3" font-family="Times,serif" font-size="14.00" fill="#000000">reg</text>
</g>
<!-- custom&#45;&gt;reg -->
<g id="edge23" class="edge">
<title>custom&#45;&gt;reg</title>
<path fill="none" stroke="#000000" d="M399.452,-802.7173C430.262,-791.4135 479.7304,-773.2643 512.5128,-761.2369"/>
<polygon fill="#000000" stroke="#000000" points="513.9293,-764.4454 522.1119,-757.7151 511.5182,-757.8737 513.9293,-764.4454"/>
</g>
<!-- reg_s -->
<g id="node27" class="node">
<title>reg_s</title>
<ellipse fill="none" stroke="#000000" cx="822.9037" cy="-776" rx="29.795" ry="18"/>
<text text-anchor="middle" x="822.9037" y="-772.3" font-family="Times,serif" font-size="14.00" fill="#000000">reg_s</text>
</g>
<!-- reg&#45;&gt;reg_s -->
<g id="edge25" class="edge">
<title>reg&#45;&gt;reg_s</title>
<path fill="none" stroke="#000000" d="M572.6814,-751.6134C621.6426,-756.3851 725.7356,-766.53 783.0301,-772.1139"/>
<polygon fill="#000000" stroke="#000000" points="782.8674,-775.6146 793.1598,-773.1012 783.5465,-768.6476 782.8674,-775.6146"/>
</g>
<!-- reg_m -->
<g id="node28" class="node">
<title>reg_m</title>
<ellipse fill="none" stroke="#000000" cx="822.9037" cy="-722" rx="33.5952" ry="18"/>
<text text-anchor="middle" x="822.9037" y="-718.3" font-family="Times,serif" font-size="14.00" fill="#000000">reg_m</text>
</g>
<!-- reg&#45;&gt;reg_m -->
<g id="edge26" class="edge">
<title>reg&#45;&gt;reg_m</title>
<path fill="none" stroke="#000000" d="M572.6814,-746.3866C620.5913,-741.7173 721.2907,-731.9032 779.2756,-726.252"/>
<polygon fill="#000000" stroke="#000000" points="779.6241,-729.7347 789.2374,-725.2811 778.945,-722.7677 779.6241,-729.7347"/>
</g>
<!-- wrong_url -->
<g id="node29" class="node">
<title>wrong_url</title>
<ellipse fill="none" stroke="#000000" stroke-dasharray="5,2" cx="239.5334" cy="-62" rx="47.3916" ry="18"/>
<text text-anchor="middle" x="239.5334" y="-58.3" font-family="Times,serif" font-size="14.00" fill="#000000">wrong_url</text>
</g>
<!-- wrong_url&#45;&gt;url -->
<g id="edge27" class="edge">
<title>wrong_url&#45;&gt;url</title>
<path fill="none" stroke="#000000" d="M246.4388,-79.8535C268.1174,-135.9025 334.9192,-308.6158 360.9183,-375.8352"/>
<polygon fill="#000000" stroke="#000000" points="357.7163,-377.2591 364.588,-385.3232 364.2449,-374.7339 357.7163,-377.2591"/>
</g>
<!-- http_status -->
<g id="node31" class="node">
<title>http_status</title>
<ellipse fill="none" stroke="#000000" cx="822.9037" cy="-187" rx="48.9926" ry="18"/>
<text text-anchor="middle" x="822.9037" y="-183.3" font-family="Times,serif" font-size="14.00" fill="#000000">http_status</text>
</g>
<!-- web&#45;&gt;http_status -->
<g id="edge30" class="edge">
<title>web&#45;&gt;http_status</title>
<path fill="none" stroke="#000000" d="M573.0324,-281.9975C590.3467,-273.8805 613.342,-263.4126 634.06,-255 682.0727,-235.5042 738.0288,-215.7123 776.4979,-202.5471"/>
<polygon fill="#000000" stroke="#000000" points="778.0375,-205.7201 786.3738,-199.1814 775.7794,-199.0943 778.0375,-205.7201"/>
</g>
<!-- text -->
<g id="node32" class="node">
<title>text</title>
<ellipse fill="none" stroke="#000000" cx="822.9037" cy="-133" rx="27" ry="18"/>
<text text-anchor="middle" x="822.9037" y="-129.3" font-family="Times,serif" font-size="14.00" fill="#000000">text</text>
</g>
<!-- web&#45;&gt;text -->
<g id="edge31" class="edge">
<title>web&#45;&gt;text</title>
<path fill="none" stroke="#000000" d="M562.7839,-276.7515C579.6365,-259.3125 606.8552,-233.0752 634.06,-215 682.2537,-182.9794 698.7693,-182.54 752.06,-160 764.1825,-154.8726 777.6441,-149.6311 789.549,-145.1471"/>
<polygon fill="#000000" stroke="#000000" points="790.9729,-148.3516 799.1194,-141.5777 788.5268,-141.7929 790.9729,-148.3516"/>
</g>
<!-- html -->
<g id="node33" class="node">
<title>html</title>
<ellipse fill="none" stroke="#000000" cx="822.9037" cy="-349" rx="27.0966" ry="18"/>
<text text-anchor="middle" x="822.9037" y="-345.3" font-family="Times,serif" font-size="14.00" fill="#000000">html</text>
</g>
<!-- web&#45;&gt;html -->
<g id="edge32" class="edge">
<title>web&#45;&gt;html</title>
<path fill="none" stroke="#000000" d="M572.9341,-300.2761C623.0503,-310.0447 730.3046,-330.9506 786.6382,-341.9312"/>
<polygon fill="#000000" stroke="#000000" points="786.0542,-345.3831 796.5391,-343.861 787.3934,-338.5124 786.0542,-345.3831"/>
</g>
<!-- redirects -->
<g id="node34" class="node">
<title>redirects</title>
<ellipse fill="none" stroke="#000000" cx="822.9037" cy="-403" rx="40.8928" ry="18"/>
<text text-anchor="middle" x="822.9037" y="-399.3" font-family="Times,serif" font-size="14.00" fill="#000000">redirects</text>
</g>
<!-- web&#45;&gt;redirects -->
<g id="edge33" class="edge">
<title>web&#45;&gt;redirects</title>
<path fill="none" stroke="#000000" d="M572.9842,-308.4145C590.2799,-316.7681 613.2725,-327.5026 634.06,-336 683.4246,-356.1791 741.3862,-376.2166 779.9464,-389.0459"/>
<polygon fill="#000000" stroke="#000000" points="779.2057,-392.4874 789.7991,-392.3075 781.4057,-385.8421 779.2057,-392.4874"/>
</g>
<!-- x_frame_options -->
<g id="node35" class="node">
<title>x_frame_options</title>
<ellipse fill="none" stroke="#000000" cx="822.9037" cy="-295" rx="70.6878" ry="18"/>
<text text-anchor="middle" x="822.9037" y="-291.3" font-family="Times,serif" font-size="14.00" fill="#000000">x_frame_options</text>
</g>
<!-- web&#45;&gt;x_frame_options -->
<g id="edge34" class="edge">
<title>web&#45;&gt;x_frame_options</title>
<path fill="none" stroke="#000000" d="M572.9341,-295C611.7231,-295 684.7405,-295 741.8847,-295"/>
<polygon fill="#000000" stroke="#000000" points="741.9953,-298.5001 751.9952,-295 741.9952,-291.5001 741.9953,-298.5001"/>
</g>
<!-- csp -->
<g id="node36" class="node">
<title>csp</title>
<ellipse fill="none" stroke="#000000" cx="822.9037" cy="-241" rx="27" ry="18"/>
<text text-anchor="middle" x="822.9037" y="-237.3" font-family="Times,serif" font-size="14.00" fill="#000000">csp</text>
</g>
<!-- web&#45;&gt;csp -->
<g id="edge35" class="edge">
<title>web&#45;&gt;csp</title>
<path fill="none" stroke="#000000" d="M572.9341,-289.7239C623.1785,-279.9303 730.8536,-258.9424 787.0694,-247.9848"/>
<polygon fill="#000000" stroke="#000000" points="787.7962,-251.4091 796.9419,-246.0605 786.4569,-244.5384 787.7962,-251.4091"/>
</g>
<!-- redirects&#45;&gt;url -->
<g id="edge51" class="edge">
<title>redirects&#45;&gt;url</title>
<path fill="none" stroke="#000000" stroke-dasharray="5,2" d="M781.8291,-403C694.6841,-403 492.4204,-403 408.7208,-403"/>
<polygon fill="#000000" stroke="#000000" points="408.6503,-399.5001 398.6503,-403 408.6503,-406.5001 408.6503,-399.5001"/>
</g>
<!-- spf -->
<g id="node38" class="node">
<title>spf</title>
<ellipse fill="none" stroke="#000000" cx="963.8945" cy="-430" rx="27" ry="18"/>
<text text-anchor="middle" x="963.8945" y="-426.3" font-family="Times,serif" font-size="14.00" fill="#000000">spf</text>
</g>
<!-- dns&#45;&gt;spf -->
<g id="edge37" class="edge">
<title>dns&#45;&gt;spf</title>
<path fill="none" stroke="#000000" d="M849.9714,-502.7655C863.5357,-498.1265 879.9634,-491.7119 893.7474,-484 902.9988,-478.824 922.6495,-463.5454 938.805,-450.5554"/>
<polygon fill="#000000" stroke="#000000" points="941.2889,-453.0478 946.8612,-444.0367 936.8857,-447.6061 941.2889,-453.0478"/>
</g>
<!-- txt -->
<g id="node39" class="node">
<title>txt</title>
<ellipse fill="none" stroke="#000000" cx="963.8945" cy="-376" rx="27" ry="18"/>
<text text-anchor="middle" x="963.8945" y="-372.3" font-family="Times,serif" font-size="14.00" fill="#000000">txt</text>
</g>
<!-- dns&#45;&gt;txt -->
<g id="edge38" class="edge">
<title>dns&#45;&gt;txt</title>
<path fill="none" stroke="#000000" d="M850.1421,-505.8659C864.5735,-501.9546 881.7452,-495.2535 893.7474,-484 922.6192,-456.929 906.5482,-434.3181 930.7474,-403 932.7442,-400.4158 935.0338,-397.9223 937.4565,-395.5647"/>
<polygon fill="#000000" stroke="#000000" points="939.7787,-398.1835 944.9647,-388.9446 935.1492,-392.9329 939.7787,-398.1835"/>
</g>
<!-- a -->
<g id="node40" class="node">
<title>a</title>
<ellipse fill="none" stroke="#000000" cx="963.8945" cy="-322" rx="27" ry="18"/>
<text text-anchor="middle" x="963.8945" y="-318.3" font-family="Times,serif" font-size="14.00" fill="#000000">a</text>
</g>
<!-- dns&#45;&gt;a -->
<g id="edge39" class="edge">
<title>dns&#45;&gt;a</title>
<path fill="none" stroke="#000000" d="M850.1819,-506.7702C864.9889,-503.1187 882.512,-496.377 893.7474,-484 914.6551,-460.968 913.7687,-375.064 930.7474,-349 932.4185,-346.4346 934.4118,-343.995 936.5799,-341.7071"/>
<polygon fill="#000000" stroke="#000000" points="939.3897,-343.8807 944.4111,-334.5514 934.6678,-338.7131 939.3897,-343.8807"/>
</g>
<!-- aaaa -->
<g id="node41" class="node">
<title>aaaa</title>
<ellipse fill="none" stroke="#000000" cx="963.8945" cy="-268" rx="27" ry="18"/>
<text text-anchor="middle" x="963.8945" y="-264.3" font-family="Times,serif" font-size="14.00" fill="#000000">aaaa</text>
</g>
<!-- dns&#45;&gt;aaaa -->
<g id="edge40" class="edge">
<title>dns&#45;&gt;aaaa</title>
<path fill="none" stroke="#000000" d="M850.1854,-507.1644C865.183,-503.6358 882.8939,-496.8858 893.7474,-484 921.318,-451.2668 908.7334,-331.7013 930.7474,-295 932.3223,-292.3744 934.2502,-289.894 936.3766,-287.58"/>
<polygon fill="#000000" stroke="#000000" points="939.1866,-289.748 944.1457,-280.3854 934.4304,-284.612 939.1866,-289.748"/>
</g>
<!-- ns -->
<g id="node42" class="node">
<title>ns</title>
<ellipse fill="none" stroke="#000000" cx="963.8945" cy="-214" rx="27" ry="18"/>
<text text-anchor="middle" x="963.8945" y="-210.3" font-family="Times,serif" font-size="14.00" fill="#000000">ns</text>
</g>
<!-- dns&#45;&gt;ns -->
<g id="edge41" class="edge">
<title>dns&#45;&gt;ns</title>
<path fill="none" stroke="#000000" d="M850.0386,-507.4148C865.1802,-503.9671 883.0857,-497.2145 893.7474,-484 910.8968,-462.7445 917.1966,-264.7124 930.7474,-241 932.2665,-238.3418 934.1566,-235.8392 936.2589,-233.5111"/>
<polygon fill="#000000" stroke="#000000" points="939.0683,-235.6767 943.992,-226.2954 934.2927,-230.5587 939.0683,-235.6767"/>
</g>
<!-- mx -->
<g id="node43" class="node">
<title>mx</title>
<ellipse fill="none" stroke="#000000" cx="963.8945" cy="-538" rx="27" ry="18"/>
<text text-anchor="middle" x="963.8945" y="-534.3" font-family="Times,serif" font-size="14.00" fill="#000000">mx</text>
</g>
<!-- dns&#45;&gt;mx -->
<g id="edge42" class="edge">
<title>dns&#45;&gt;mx</title>
<path fill="none" stroke="#000000" d="M850.0881,-516.2059C872.2137,-520.443 903.6326,-526.4597 927.8547,-531.0983"/>
<polygon fill="#000000" stroke="#000000" points="927.267,-534.5493 937.7468,-532.9927 928.5836,-527.6742 927.267,-534.5493"/>
</g>
<!-- dmarc -->
<g id="node44" class="node">
<title>dmarc</title>
<ellipse fill="none" stroke="#000000" cx="963.8945" cy="-484" rx="33.2948" ry="18"/>
<text text-anchor="middle" x="963.8945" y="-480.3" font-family="Times,serif" font-size="14.00" fill="#000000">dmarc</text>
</g>
<!-- dns&#45;&gt;dmarc -->
<g id="edge43" class="edge">
<title>dns&#45;&gt;dmarc</title>
<path fill="none" stroke="#000000" d="M850.0881,-505.7941C870.6511,-501.8563 899.2412,-496.3812 922.6209,-491.904"/>
<polygon fill="#000000" stroke="#000000" points="923.4518,-495.3085 932.615,-489.9901 922.1351,-488.4335 923.4518,-495.3085"/>
</g>
<!-- email&#45;&gt;hostname -->
<g id="edge45" class="edge">
<title>email&#45;&gt;hostname</title>
<path fill="none" stroke="#000000" d="M1249.8192,-534.3607C1219.0421,-552.8538 1158.8996,-584 1102.9354,-584 822.9037,-584 822.9037,-584 822.9037,-584 735.8108,-584 638.2493,-549.8475 585.2858,-528.2624"/>
<polygon fill="#000000" stroke="#000000" points="586.5063,-524.9797 575.9279,-524.3893 583.8293,-531.4476 586.5063,-524.9797"/>
</g>
<!-- country_name&#45;&gt;whois -->
<g id="edge46" class="edge">
<title>country_name&#45;&gt;whois</title>
<path fill="none" stroke="#000000" d="M1241.7092,-75.9932C1195.1256,-52.498 1101.7541,-15.2382 1034.0415,-52 1002.9917,-68.8572 983.5463,-106.0548 973.21,-132.0583"/>
<polygon fill="#000000" stroke="#000000" points="969.8102,-131.156 969.5695,-141.7481 976.363,-133.618 969.8102,-131.156"/>
</g>
<!-- phone -->
<g id="node47" class="node">
<title>phone</title>
<ellipse fill="none" stroke="#000000" stroke-dasharray="5,2" cx="822.9037" cy="-41" rx="32.4942" ry="18"/>
<text text-anchor="middle" x="822.9037" y="-37.3" font-family="Times,serif" font-size="14.00" fill="#000000">phone</text>
</g>
<!-- phone&#45;&gt;whois -->
<g id="edge48" class="edge">
<title>phone&#45;&gt;whois</title>
<path fill="none" stroke="#000000" d="M854.2885,-46.5533C872.8946,-51.1252 896.0289,-59.1807 912.7474,-73 931.7225,-88.6846 945.2762,-113.3603 953.6434,-132.4326"/>
<polygon fill="#000000" stroke="#000000" points="950.4752,-133.9292 957.5474,-141.818 956.9383,-131.2407 950.4752,-133.9292"/>
</g>
<!-- tld&#45;&gt;whois -->
<g id="edge52" class="edge">
<title>tld&#45;&gt;whois</title>
<path fill="none" stroke="#000000" d="M849.687,-453.4944C864.9022,-450.0714 883.003,-443.3169 893.7474,-430 928.0463,-387.4889 903.6458,-234.4248 930.7474,-187 930.92,-186.6979 931.0974,-186.3979 931.2794,-186.0998"/>
<polygon fill="#000000" stroke="#000000" points="934.1807,-188.0731 937.6237,-178.0533 928.6837,-183.739 934.1807,-188.0731"/>
</g>
<!-- timestamp -->
<g id="node49" class="node">
<title>timestamp</title>
<ellipse fill="none" stroke="#000000" stroke-dasharray="5,2" cx="60.4446" cy="-1012" rx="48.1917" ry="18"/>
<text text-anchor="middle" x="60.4446" y="-1008.3" font-family="Times,serif" font-size="14.00" fill="#000000">timestamp</text>
</g>
<!-- formatted_time -->
<g id="node50" class="node">
<title>formatted_time</title>
<ellipse fill="none" stroke="#000000" cx="239.5334" cy="-1093" rx="65.7887" ry="18"/>
<text text-anchor="middle" x="239.5334" y="-1089.3" font-family="Times,serif" font-size="14.00" fill="#000000">formatted_time</text>
</g>
<!-- timestamp&#45;&gt;formatted_time -->
<g id="edge53" class="edge">
<title>timestamp&#45;&gt;formatted_time</title>
<path fill="none" stroke="#000000" d="M89.6249,-1026.4237C112.4197,-1037.5611 144.9743,-1053.1829 173.8893,-1066 180.0203,-1068.7177 186.5112,-1071.5001 192.9319,-1074.1969"/>
<polygon fill="#000000" stroke="#000000" points="191.6615,-1077.4591 202.2387,-1078.0692 194.3506,-1070.9962 191.6615,-1077.4591"/>
<text text-anchor="middle" x="147.3893" y="-1060" font-family="Times,serif" font-size="10.00" fill="#000000">fmt</text>
</g>
<!-- isotimestamp -->
<g id="node51" class="node">
<title>isotimestamp</title>
<ellipse fill="none" stroke="#000000" cx="239.5334" cy="-1039" rx="58.4896" ry="18"/>
<text text-anchor="middle" x="239.5334" y="-1035.3" font-family="Times,serif" font-size="14.00" fill="#000000">isotimestamp</text>
</g>
<!-- timestamp&#45;&gt;isotimestamp -->
<g id="edge54" class="edge">
<title>timestamp&#45;&gt;isotimestamp</title>
<path fill="none" stroke="#000000" d="M105.1743,-1018.7436C126.8404,-1022.01 153.2225,-1025.9875 176.8538,-1029.5502"/>
<polygon fill="#000000" stroke="#000000" points="176.3812,-1033.0184 186.7912,-1031.0484 177.4248,-1026.0967 176.3812,-1033.0184"/>
</g>
<!-- date -->
<g id="node52" class="node">
<title>date</title>
<ellipse fill="none" stroke="#000000" cx="239.5334" cy="-985" rx="27" ry="18"/>
<text text-anchor="middle" x="239.5334" y="-981.3" font-family="Times,serif" font-size="14.00" fill="#000000">date</text>
</g>
<!-- timestamp&#45;&gt;date -->
<g id="edge55" class="edge">
<title>timestamp&#45;&gt;date</title>
<path fill="none" stroke="#000000" d="M105.1743,-1005.2564C135.4394,-1000.6935 174.9072,-994.7433 203.224,-990.4741"/>
<polygon fill="#000000" stroke="#000000" points="203.7478,-993.9348 213.1143,-988.983 202.7042,-987.013 203.7478,-993.9348"/>
</g>
<!-- time -->
<g id="node53" class="node">
<title>time</title>
<ellipse fill="none" stroke="#000000" cx="239.5334" cy="-931" rx="27" ry="18"/>
<text text-anchor="middle" x="239.5334" y="-927.3" font-family="Times,serif" font-size="14.00" fill="#000000">time</text>
</g>
<!-- timestamp&#45;&gt;time -->
<g id="edge56" class="edge">
<title>timestamp&#45;&gt;time</title>
<path fill="none" stroke="#000000" d="M89.6249,-997.5763C112.4197,-986.4389 144.9743,-970.8171 173.8893,-958 184.5847,-953.2591 196.3753,-948.3212 206.9779,-943.9845"/>
<polygon fill="#000000" stroke="#000000" points="208.3665,-947.1982 216.3155,-940.1936 205.7334,-940.7123 208.3665,-947.1982"/>
</g>
<!-- unit -->
<g id="node54" class="node">
<title>unit</title>
<ellipse fill="none" stroke="#000000" stroke-dasharray="5,2" cx="60.4446" cy="-837" rx="27" ry="18"/>
<text text-anchor="middle" x="60.4446" y="-833.3" font-family="Times,serif" font-size="14.00" fill="#000000">unit</text>
</g>
<!-- unit&#45;&gt;plaintext -->
<g id="edge57" class="edge">
<title>unit&#45;&gt;plaintext</title>
<path fill="none" stroke="#000000" d="M95.9848,-844.938C123.6454,-851.1161 162.2805,-859.7453 192.5021,-866.4954"/>
<polygon fill="#000000" stroke="#000000" points="96.6262,-841.4951 86.1037,-842.731 95.1003,-848.3268 96.6262,-841.4951"/>
<polygon fill="#000000" stroke="#000000" points="191.8782,-869.9422 202.4007,-868.7063 193.4041,-863.1106 191.8782,-869.9422"/>
<text text-anchor="middle" x="147.3893" y="-861" font-family="Times,serif" font-size="10.00" fill="#000000">unit</text>
</g>
<!-- ports -->
<g id="node56" class="node">
<title>ports</title>
<ellipse fill="none" stroke="#000000" cx="963.8945" cy="-630" rx="28.6953" ry="18"/>
<text text-anchor="middle" x="963.8945" y="-626.3" font-family="Times,serif" font-size="14.00" fill="#000000">ports</text>
</g>
<!-- nmap&#45;&gt;ports -->
<g id="edge59" class="edge">
<title>nmap&#45;&gt;ports</title>
<path fill="none" stroke="#000000" d="M850.0881,-630C871.2784,-630 900.9931,-630 924.7458,-630"/>
<polygon fill="#000000" stroke="#000000" points="924.8521,-633.5001 934.852,-630 924.852,-626.5001 924.8521,-633.5001"/>
</g>
</g>
</svg>
