<?xml version="1.0" encoding="UTF-8" standalone="no"?>
<!DOCTYPE svg PUBLIC "-//W3C//DTD SVG 1.1//EN"
 "http://www.w3.org/Graphics/SVG/1.1/DTD/svg11.dtd">
<!-- Generated by graphviz version 2.40.1 (20161225.0304)
 -->
<!-- Title: %3 Pages: 1 -->
<svg width="2318pt" height="608pt"
 viewBox="0.00 0.00 2318.29 608.00" xmlns="http://www.w3.org/2000/svg" xmlns:xlink="http://www.w3.org/1999/xlink">
<g id="graph0" class="graph" transform="scale(1 1) rotate(0) translate(4 604)">
<title>%3</title>
<polygon fill="#ffffff" stroke="transparent" points="-4,4 -4,-604 2314.2941,-604 2314.2941,4 -4,4"/>
<text text-anchor="middle" x="1155.1471" y="-7.8" font-family="Times,serif" font-size="14.00" fill="#000000">Convey field types (dashed nodes = identifiable automatically)</text>
<!-- source_ip -->
<g id="node1" class="node">
<title>source_ip</title>
<ellipse fill="none" stroke="#000000" stroke-dasharray="5,2" cx="335" cy="-582" rx="44.6926" ry="18"/>
<text text-anchor="middle" x="335" y="-578.3" font-family="Times,serif" font-size="14.00" fill="#000000">source_ip</text>
</g>
<!-- ip -->
<g id="node2" class="node">
<title>ip</title>
<ellipse fill="none" stroke="#000000" stroke-dasharray="5,2" cx="514" cy="-499" rx="27" ry="18"/>
<text text-anchor="middle" x="514" y="-495.3" font-family="Times,serif" font-size="14.00" fill="#000000">ip</text>
</g>
<!-- source_ip&#45;&gt;ip -->
<g id="edge1" class="edge">
<title>source_ip&#45;&gt;ip</title>
<path fill="none" stroke="#000000" stroke-dasharray="5,2" d="M364.5582,-568.2942C397.0941,-553.2078 449.1896,-529.0518 482.4854,-513.6129"/>
<polygon fill="#000000" stroke="#000000" points="484.1592,-516.6948 491.7591,-509.3128 481.2145,-510.3443 484.1592,-516.6948"/>
</g>
<!-- url -->
<g id="node6" class="node">
<title>url</title>
<ellipse fill="none" stroke="#000000" stroke-dasharray="5,2" cx="599" cy="-426" rx="27" ry="18"/>
<text text-anchor="middle" x="599" y="-422.3" font-family="Times,serif" font-size="14.00" fill="#000000">url</text>
</g>
<!-- ip&#45;&gt;url -->
<g id="edge28" class="edge">
<title>ip&#45;&gt;url</title>
<path fill="none" stroke="#000000" d="M530.7933,-484.5775C543.2501,-473.8793 560.4266,-459.1278 574.4259,-447.1048"/>
<polygon fill="#000000" stroke="#000000" points="576.9357,-449.563 582.2416,-440.3925 572.375,-444.2526 576.9357,-449.563"/>
</g>
<!-- whois -->
<g id="node8" class="node">
<title>whois</title>
<polygon fill="none" stroke="#000000" points="320,-205 266,-205 266,-169 320,-169 320,-205"/>
<text text-anchor="middle" x="293" y="-183.3" font-family="Times,serif" font-size="14.00" fill="#000000">whois</text>
</g>
<!-- ip&#45;&gt;whois -->
<g id="edge7" class="edge">
<title>ip&#45;&gt;whois</title>
<path fill="none" stroke="#000000" d="M486.728,-498.0303C380.4653,-493.8961 0,-475.6287 0,-426 0,-426 0,-426 0,-260 0,-207.8227 177.1604,-192.6513 255.9656,-188.4838"/>
<polygon fill="#000000" stroke="#000000" points="256.1467,-191.9792 265.9604,-187.9867 255.7989,-184.9879 256.1467,-191.9792"/>
</g>
<!-- nmap -->
<g id="node55" class="node">
<title>nmap</title>
<polygon fill="none" stroke="#d3d3d3" points="540,-278 486,-278 486,-242 540,-242 540,-278"/>
<text text-anchor="middle" x="513" y="-256.3" font-family="Times,serif" font-size="14.00" fill="#d3d3d3">nmap</text>
</g>
<!-- ip&#45;&gt;nmap -->
<g id="edge60" class="edge">
<title>ip&#45;&gt;nmap</title>
<path fill="none" stroke="#d3d3d3" d="M513.9232,-480.6429C513.7493,-439.0946 513.3248,-337.6279 513.1176,-288.1095"/>
<polygon fill="#d3d3d3" stroke="#d3d3d3" points="516.6176,-288.0777 513.0757,-278.0925 509.6177,-288.1071 516.6176,-288.0777"/>
</g>
<!-- destination_ip -->
<g id="node3" class="node">
<title>destination_ip</title>
<ellipse fill="none" stroke="#000000" stroke-dasharray="5,2" cx="458" cy="-582" rx="60.3893" ry="18"/>
<text text-anchor="middle" x="458" y="-578.3" font-family="Times,serif" font-size="14.00" fill="#000000">destination_ip</text>
</g>
<!-- destination_ip&#45;&gt;ip -->
<g id="edge2" class="edge">
<title>destination_ip&#45;&gt;ip</title>
<path fill="none" stroke="#000000" stroke-dasharray="5,2" d="M470.1512,-563.9902C478.0444,-552.2913 488.4431,-536.8789 497.133,-523.9993"/>
<polygon fill="#000000" stroke="#000000" points="500.1325,-525.8114 502.8242,-515.5642 494.3297,-521.8962 500.1325,-525.8114"/>
</g>
<!-- any_ip -->
<g id="node4" class="node">
<title>any_ip</title>
<ellipse fill="none" stroke="#000000" stroke-dasharray="5,2" cx="571" cy="-582" rx="34.394" ry="18"/>
<text text-anchor="middle" x="571" y="-578.3" font-family="Times,serif" font-size="14.00" fill="#000000">any_ip</text>
</g>
<!-- any_ip&#45;&gt;ip -->
<g id="edge3" class="edge">
<title>any_ip&#45;&gt;ip</title>
<path fill="none" stroke="#000000" d="M559.1896,-564.8023C551.1352,-553.0741 540.335,-537.3475 531.3128,-524.2099"/>
<polygon fill="#000000" stroke="#000000" points="533.9526,-521.8712 525.4064,-515.6092 528.1823,-525.834 533.9526,-521.8712"/>
</g>
<!-- port_ip -->
<g id="node5" class="node">
<title>port_ip</title>
<ellipse fill="none" stroke="#000000" stroke-dasharray="5,2" cx="660" cy="-582" rx="36.2938" ry="18"/>
<text text-anchor="middle" x="660" y="-578.3" font-family="Times,serif" font-size="14.00" fill="#000000">port_ip</text>
</g>
<!-- port_ip&#45;&gt;ip -->
<g id="edge4" class="edge">
<title>port_ip&#45;&gt;ip</title>
<path fill="none" stroke="#000000" d="M635.8911,-568.2942C610.5683,-553.8984 570.7192,-531.2445 543.5279,-515.7864"/>
<polygon fill="#000000" stroke="#000000" points="545.2542,-512.7418 534.831,-510.8423 541.7946,-518.8271 545.2542,-512.7418"/>
</g>
<!-- hostname -->
<g id="node7" class="node">
<title>hostname</title>
<ellipse fill="none" stroke="#000000" stroke-dasharray="5,2" cx="441" cy="-343" rx="44.6926" ry="18"/>
<text text-anchor="middle" x="441" y="-339.3" font-family="Times,serif" font-size="14.00" fill="#000000">hostname</text>
</g>
<!-- url&#45;&gt;hostname -->
<g id="edge5" class="edge">
<title>url&#45;&gt;hostname</title>
<path fill="none" stroke="#000000" d="M568.8162,-410.1439C542.7469,-396.4493 505.0137,-376.6274 477.3012,-362.0696"/>
<polygon fill="#000000" stroke="#000000" points="567.2109,-413.2542 577.6914,-414.8063 570.4663,-407.0572 567.2109,-413.2542"/>
<polygon fill="#000000" stroke="#000000" points="478.7991,-358.903 468.3186,-357.3509 475.5437,-365.1 478.7991,-358.903"/>
</g>
<!-- web -->
<g id="node30" class="node">
<title>web</title>
<polygon fill="none" stroke="#000000" points="872,-361 818,-361 818,-325 872,-325 872,-361"/>
<text text-anchor="middle" x="845" y="-339.3" font-family="Times,serif" font-size="14.00" fill="#000000">web</text>
</g>
<!-- url&#45;&gt;web -->
<g id="edge29" class="edge">
<title>url&#45;&gt;web</title>
<path fill="none" stroke="#000000" d="M623.4868,-417.7382C666.7815,-403.1306 757.0703,-372.6673 807.9956,-355.4852"/>
<polygon fill="#000000" stroke="#000000" points="809.2739,-358.7479 817.6302,-352.2345 807.036,-352.1152 809.2739,-358.7479"/>
</g>
<!-- hostname&#45;&gt;ip -->
<g id="edge6" class="edge">
<title>hostname&#45;&gt;ip</title>
<path fill="none" stroke="#000000" d="M449.3518,-360.8477C462.1627,-388.2244 486.7401,-440.7459 501.6245,-472.5536"/>
<polygon fill="#000000" stroke="#000000" points="498.5003,-474.1353 505.9088,-481.7092 504.8404,-471.1684 498.5003,-474.1353"/>
</g>
<!-- dns -->
<g id="node37" class="node">
<title>dns</title>
<polygon fill="none" stroke="#000000" points="468,-278 414,-278 414,-242 468,-242 468,-278"/>
<text text-anchor="middle" x="441" y="-256.3" font-family="Times,serif" font-size="14.00" fill="#000000">dns</text>
</g>
<!-- hostname&#45;&gt;dns -->
<g id="edge36" class="edge">
<title>hostname&#45;&gt;dns</title>
<path fill="none" stroke="#000000" d="M441,-324.9902C441,-314.2963 441,-300.4994 441,-288.3706"/>
<polygon fill="#000000" stroke="#000000" points="444.5001,-288.2612 441,-278.2612 437.5001,-288.2613 444.5001,-288.2612"/>
</g>
<!-- tld -->
<g id="node48" class="node">
<title>tld</title>
<ellipse fill="none" stroke="#000000" cx="282" cy="-260" rx="27" ry="18"/>
<text text-anchor="middle" x="282" y="-256.3" font-family="Times,serif" font-size="14.00" fill="#000000">tld</text>
</g>
<!-- hostname&#45;&gt;tld -->
<g id="edge49" class="edge">
<title>hostname&#45;&gt;tld</title>
<path fill="none" stroke="#000000" d="M402.4674,-333.4045C382.1977,-327.448 357.3926,-318.6811 337,-307 325.2498,-300.2694 313.6417,-290.8719 304.1401,-282.2475"/>
<polygon fill="#000000" stroke="#000000" points="306.3837,-279.5531 296.6974,-275.2604 301.5926,-284.6566 306.3837,-279.5531"/>
<text text-anchor="middle" x="387" y="-299" font-family="Times,serif" font-size="10.00" fill="#000000">choose all,ccTLD,gTLD</text>
</g>
<!-- hostname&#45;&gt;nmap -->
<g id="edge58" class="edge">
<title>hostname&#45;&gt;nmap</title>
<path fill="none" stroke="#d3d3d3" d="M455.9184,-325.8023C465.9469,-314.2418 479.3453,-298.7964 490.641,-285.775"/>
<polygon fill="#d3d3d3" stroke="#d3d3d3" points="493.4446,-287.8843 497.3535,-278.0369 488.1568,-283.2974 493.4446,-287.8843"/>
</g>
<!-- prefix -->
<g id="node10" class="node">
<title>prefix</title>
<ellipse fill="none" stroke="#000000" cx="988" cy="-114" rx="31.6951" ry="18"/>
<text text-anchor="middle" x="988" y="-110.3" font-family="Times,serif" font-size="14.00" fill="#000000">prefix</text>
</g>
<!-- whois&#45;&gt;prefix -->
<g id="edge9" class="edge">
<title>whois&#45;&gt;prefix</title>
<path fill="none" stroke="#000000" d="M320.0586,-172.0252C323.0125,-170.8301 326.027,-169.7839 329,-169 403.4483,-149.3695 598.2839,-157.5227 675,-151 772.7241,-142.691 887.0408,-127.8794 946.8102,-119.7438"/>
<polygon fill="#000000" stroke="#000000" points="947.5376,-123.177 956.9708,-118.3535 946.5886,-116.2416 947.5376,-123.177"/>
</g>
<!-- asn -->
<g id="node11" class="node">
<title>asn</title>
<ellipse fill="none" stroke="#000000" stroke-dasharray="5,2" cx="591" cy="-114" rx="27" ry="18"/>
<text text-anchor="middle" x="591" y="-110.3" font-family="Times,serif" font-size="14.00" fill="#000000">asn</text>
</g>
<!-- whois&#45;&gt;asn -->
<g id="edge10" class="edge">
<title>whois&#45;&gt;asn</title>
<path fill="none" stroke="#000000" d="M320.1568,-172.3599C323.0916,-171.0995 326.0748,-169.9466 329,-169 425.8377,-137.6636 458.1623,-163.3364 555,-132 556.8948,-131.3869 558.8138,-130.6871 560.7283,-129.9277"/>
<polygon fill="#000000" stroke="#000000" points="562.4069,-133.0121 570.1286,-125.7576 559.5684,-126.6134 562.4069,-133.0121"/>
</g>
<!-- abusemail -->
<g id="node12" class="node">
<title>abusemail</title>
<ellipse fill="none" stroke="#000000" cx="499" cy="-114" rx="46.5926" ry="18"/>
<text text-anchor="middle" x="499" y="-110.3" font-family="Times,serif" font-size="14.00" fill="#000000">abusemail</text>
</g>
<!-- whois&#45;&gt;abusemail -->
<g id="edge11" class="edge">
<title>whois&#45;&gt;abusemail</title>
<path fill="none" stroke="#000000" d="M320.3204,-172.8072C323.2233,-171.4596 326.1543,-170.164 329,-169 332.0113,-167.7683 404.1242,-144.5177 453.4502,-128.645"/>
<polygon fill="#000000" stroke="#000000" points="454.5368,-131.9722 462.9843,-125.5776 452.3929,-125.3086 454.5368,-131.9722"/>
</g>
<!-- country -->
<g id="node13" class="node">
<title>country</title>
<ellipse fill="none" stroke="#000000" cx="712" cy="-114" rx="37.8943" ry="18"/>
<text text-anchor="middle" x="712" y="-110.3" font-family="Times,serif" font-size="14.00" fill="#000000">country</text>
</g>
<!-- whois&#45;&gt;country -->
<g id="edge12" class="edge">
<title>whois&#45;&gt;country</title>
<path fill="none" stroke="#000000" d="M320.0605,-172.0324C323.0141,-170.8359 326.0279,-169.7874 329,-169 400.2075,-150.1345 590.4642,-175.3143 660,-151 669.3705,-147.7234 678.5513,-142.2084 686.5273,-136.4231"/>
<polygon fill="#000000" stroke="#000000" points="688.8921,-139.0188 694.6613,-130.1325 684.6097,-133.4816 688.8921,-139.0188"/>
</g>
<!-- netname -->
<g id="node14" class="node">
<title>netname</title>
<ellipse fill="none" stroke="#000000" cx="107" cy="-114" rx="40.8928" ry="18"/>
<text text-anchor="middle" x="107" y="-110.3" font-family="Times,serif" font-size="14.00" fill="#000000">netname</text>
</g>
<!-- whois&#45;&gt;netname -->
<g id="edge13" class="edge">
<title>whois&#45;&gt;netname</title>
<path fill="none" stroke="#000000" d="M265.954,-176.3852C234.8254,-164.168 183.3858,-143.9794 147.4822,-129.8882"/>
<polygon fill="#000000" stroke="#000000" points="148.3847,-126.4825 137.7972,-126.0871 145.8273,-132.9986 148.3847,-126.4825"/>
</g>
<!-- csirt_contact -->
<g id="node15" class="node">
<title>csirt_contact</title>
<ellipse fill="none" stroke="#000000" cx="222" cy="-114" rx="55.7903" ry="18"/>
<text text-anchor="middle" x="222" y="-110.3" font-family="Times,serif" font-size="14.00" fill="#000000">csirt_contact</text>
</g>
<!-- whois&#45;&gt;csirt_contact -->
<g id="edge14" class="edge">
<title>whois&#45;&gt;csirt_contact</title>
<path fill="none" stroke="#000000" d="M275.4494,-168.9551C266.5487,-159.8035 255.605,-148.5516 245.9432,-138.6177"/>
<polygon fill="#000000" stroke="#000000" points="248.341,-136.063 238.8598,-131.3347 243.323,-140.9436 248.341,-136.063"/>
</g>
<!-- incident_contact -->
<g id="node16" class="node">
<title>incident_contact</title>
<ellipse fill="none" stroke="#000000" cx="365" cy="-114" rx="68.7879" ry="18"/>
<text text-anchor="middle" x="365" y="-110.3" font-family="Times,serif" font-size="14.00" fill="#000000">incident_contact</text>
</g>
<!-- whois&#45;&gt;incident_contact -->
<g id="edge15" class="edge">
<title>whois&#45;&gt;incident_contact</title>
<path fill="none" stroke="#000000" d="M310.7978,-168.9551C319.7575,-159.8708 330.7586,-148.7169 340.5032,-138.837"/>
<polygon fill="#000000" stroke="#000000" points="343.1251,-141.1629 347.6554,-131.5855 338.1414,-136.2474 343.1251,-141.1629"/>
</g>
<!-- cidr -->
<g id="node9" class="node">
<title>cidr</title>
<ellipse fill="none" stroke="#000000" stroke-dasharray="5,2" cx="1089" cy="-41" rx="27" ry="18"/>
<text text-anchor="middle" x="1089" y="-37.3" font-family="Times,serif" font-size="14.00" fill="#000000">cidr</text>
</g>
<!-- cidr&#45;&gt;ip -->
<g id="edge8" class="edge">
<title>cidr&#45;&gt;ip</title>
<path fill="none" stroke="#000000" d="M1111.0757,-51.9382C1131.9179,-64.0013 1160,-85.5362 1160,-114 1160,-426 1160,-426 1160,-426 1160,-487.6692 689.1542,-497.2471 551.4177,-498.7296"/>
<polygon fill="#000000" stroke="#000000" points="551.3099,-495.2304 541.3452,-498.8298 551.3795,-502.2301 551.3099,-495.2304"/>
</g>
<!-- prefix&#45;&gt;cidr -->
<g id="edge50" class="edge">
<title>prefix&#45;&gt;cidr</title>
<path fill="none" stroke="#000000" d="M1007.9543,-99.5775C1023.4243,-88.3963 1045.0202,-72.7874 1062.0294,-60.4936"/>
<polygon fill="#000000" stroke="#000000" points="1064.3949,-63.1024 1070.4493,-54.4079 1060.2944,-57.4292 1064.3949,-63.1024"/>
</g>
<!-- email -->
<g id="node45" class="node">
<title>email</title>
<ellipse fill="none" stroke="#000000" stroke-dasharray="5,2" cx="160" cy="-41" rx="30.5947" ry="18"/>
<text text-anchor="middle" x="160" y="-37.3" font-family="Times,serif" font-size="14.00" fill="#000000">email</text>
</g>
<!-- abusemail&#45;&gt;email -->
<g id="edge44" class="edge">
<title>abusemail&#45;&gt;email</title>
<path fill="none" stroke="#000000" stroke-dasharray="5,2" d="M463.9364,-102.0248C457.0387,-99.8692 449.8247,-97.7534 443,-96 357.1537,-73.9448 254.6561,-56.0846 199.6226,-47.1694"/>
<polygon fill="#000000" stroke="#000000" points="200.0191,-43.6883 189.5907,-45.5584 198.9092,-50.5997 200.0191,-43.6883"/>
</g>
<!-- country_name -->
<g id="node46" class="node">
<title>country_name</title>
<ellipse fill="none" stroke="#000000" cx="663" cy="-41" rx="61.99" ry="18"/>
<text text-anchor="middle" x="663" y="-37.3" font-family="Times,serif" font-size="14.00" fill="#000000">country_name</text>
</g>
<!-- country&#45;&gt;country_name -->
<g id="edge47" class="edge">
<title>country&#45;&gt;country_name</title>
<path fill="none" stroke="#000000" d="M694.6446,-88.1439C690.0406,-81.285 685.0678,-73.8766 680.4584,-67.0095"/>
<polygon fill="#000000" stroke="#000000" points="691.9084,-90.3477 700.3877,-96.7 697.7205,-86.4464 691.9084,-90.3477"/>
<polygon fill="#000000" stroke="#000000" points="683.3487,-65.0352 674.8693,-58.6829 677.5366,-68.9365 683.3487,-65.0352"/>
</g>
<!-- plaintext -->
<g id="node17" class="node">
<title>plaintext</title>
<ellipse fill="none" stroke="#000000" stroke-dasharray="5,2" cx="1504" cy="-499" rx="41.6928" ry="18"/>
<text text-anchor="middle" x="1504" y="-495.3" font-family="Times,serif" font-size="14.00" fill="#000000">plaintext</text>
</g>
<!-- bytes -->
<g id="node18" class="node">
<title>bytes</title>
<ellipse fill="none" stroke="#000000" cx="1375" cy="-426" rx="29.4969" ry="18"/>
<text text-anchor="middle" x="1375" y="-422.3" font-family="Times,serif" font-size="14.00" fill="#000000">bytes</text>
</g>
<!-- plaintext&#45;&gt;bytes -->
<g id="edge16" class="edge">
<title>plaintext&#45;&gt;bytes</title>
<path fill="none" stroke="#000000" d="M1469.6644,-479.5698C1449.7157,-468.281 1424.7985,-454.1805 1405.5358,-443.2799"/>
<polygon fill="#000000" stroke="#000000" points="1468.0869,-482.6986 1478.5138,-484.5775 1471.5344,-476.6064 1468.0869,-482.6986"/>
<polygon fill="#000000" stroke="#000000" points="1407.0072,-440.0911 1396.5803,-438.2121 1403.5597,-446.1833 1407.0072,-440.0911"/>
</g>
<!-- custom -->
<g id="node22" class="node">
<title>custom</title>
<polygon fill="none" stroke="#000000" points="1633,-444 1577,-444 1577,-408 1633,-408 1633,-444"/>
<text text-anchor="middle" x="1605" y="-422.3" font-family="Times,serif" font-size="14.00" fill="#000000">custom</text>
</g>
<!-- plaintext&#45;&gt;custom -->
<g id="edge20" class="edge">
<title>plaintext&#45;&gt;custom</title>
<path fill="none" stroke="#000000" d="M1525.4195,-483.5186C1538.9043,-473.7722 1556.5855,-460.9927 1571.8562,-449.9554"/>
<polygon fill="#000000" stroke="#000000" points="1573.9955,-452.7278 1580.0499,-444.0332 1569.895,-447.0545 1573.9955,-452.7278"/>
</g>
<!-- base64 -->
<g id="node19" class="node">
<title>base64</title>
<ellipse fill="none" stroke="#000000" stroke-dasharray="5,2" cx="1223" cy="-343" rx="35.194" ry="18"/>
<text text-anchor="middle" x="1223" y="-339.3" font-family="Times,serif" font-size="14.00" fill="#000000">base64</text>
</g>
<!-- bytes&#45;&gt;base64 -->
<g id="edge17" class="edge">
<title>bytes&#45;&gt;base64</title>
<path fill="none" stroke="#000000" d="M1344.1032,-409.1287C1318.473,-395.1333 1282.1197,-375.2824 1255.9401,-360.987"/>
<polygon fill="#000000" stroke="#000000" points="1342.4437,-412.2103 1352.8979,-413.9311 1345.7986,-406.0666 1342.4437,-412.2103"/>
<polygon fill="#000000" stroke="#000000" points="1257.5928,-357.9017 1247.1386,-356.181 1254.238,-364.0455 1257.5928,-357.9017"/>
</g>
<!-- quoted_printable -->
<g id="node20" class="node">
<title>quoted_printable</title>
<ellipse fill="none" stroke="#000000" stroke-dasharray="5,2" cx="1346" cy="-343" rx="70.3881" ry="18"/>
<text text-anchor="middle" x="1346" y="-339.3" font-family="Times,serif" font-size="14.00" fill="#000000">quoted_printable</text>
</g>
<!-- bytes&#45;&gt;quoted_printable -->
<g id="edge18" class="edge">
<title>bytes&#45;&gt;quoted_printable</title>
<path fill="none" stroke="#000000" d="M1365.431,-398.6129C1362.3064,-389.67 1358.8349,-379.7345 1355.7007,-370.764"/>
<polygon fill="#000000" stroke="#000000" points="1362.2472,-400.1119 1368.8498,-408.3978 1368.8555,-397.803 1362.2472,-400.1119"/>
<polygon fill="#000000" stroke="#000000" points="1358.9444,-369.4365 1352.3418,-361.1506 1352.3361,-371.7454 1358.9444,-369.4365"/>
</g>
<!-- charset -->
<g id="node26" class="node">
<title>charset</title>
<ellipse fill="none" stroke="#000000" cx="1470" cy="-343" rx="35.9954" ry="18"/>
<text text-anchor="middle" x="1470" y="-339.3" font-family="Times,serif" font-size="14.00" fill="#000000">charset</text>
</g>
<!-- bytes&#45;&gt;charset -->
<g id="edge24" class="edge">
<title>bytes&#45;&gt;charset</title>
<path fill="none" stroke="#000000" d="M1391.9841,-411.1613C1406.4773,-398.4987 1427.5437,-380.0934 1444.1332,-365.5994"/>
<polygon fill="#000000" stroke="#000000" points="1446.6412,-368.0559 1451.8691,-358.8407 1442.0356,-362.7844 1446.6412,-368.0559"/>
<text text-anchor="middle" x="1448.5" y="-382" font-family="Times,serif" font-size="10.00" fill="#000000">encoding</text>
</g>
<!-- urlencode -->
<g id="node21" class="node">
<title>urlencode</title>
<ellipse fill="none" stroke="#000000" stroke-dasharray="5,2" cx="1480" cy="-582" rx="45.4919" ry="18"/>
<text text-anchor="middle" x="1480" y="-578.3" font-family="Times,serif" font-size="14.00" fill="#000000">urlencode</text>
</g>
<!-- urlencode&#45;&gt;plaintext -->
<g id="edge19" class="edge">
<title>urlencode&#45;&gt;plaintext</title>
<path fill="none" stroke="#000000" d="M1488.0359,-554.2093C1490.5881,-545.3827 1493.4099,-535.6241 1495.9623,-526.7971"/>
<polygon fill="#000000" stroke="#000000" points="1484.6232,-553.4115 1485.2076,-563.9902 1491.3477,-555.356 1484.6232,-553.4115"/>
<polygon fill="#000000" stroke="#000000" points="1499.3869,-527.5533 1498.8025,-516.9746 1492.6624,-525.6088 1499.3869,-527.5533"/>
</g>
<!-- external -->
<g id="node23" class="node">
<title>external</title>
<ellipse fill="none" stroke="#000000" cx="1563" cy="-343" rx="38.9931" ry="18"/>
<text text-anchor="middle" x="1563" y="-339.3" font-family="Times,serif" font-size="14.00" fill="#000000">external</text>
</g>
<!-- custom&#45;&gt;external -->
<g id="edge21" class="edge">
<title>custom&#45;&gt;external</title>
<path fill="none" stroke="#000000" d="M1595.8866,-407.9902C1590.2343,-396.8203 1582.869,-382.2649 1576.5418,-369.7612"/>
<polygon fill="#000000" stroke="#000000" points="1579.5894,-368.0319 1571.9513,-360.6895 1573.3435,-371.1925 1579.5894,-368.0319"/>
</g>
<!-- code -->
<g id="node24" class="node">
<title>code</title>
<ellipse fill="none" stroke="#000000" cx="1647" cy="-343" rx="27.0966" ry="18"/>
<text text-anchor="middle" x="1647" y="-339.3" font-family="Times,serif" font-size="14.00" fill="#000000">code</text>
</g>
<!-- custom&#45;&gt;code -->
<g id="edge22" class="edge">
<title>custom&#45;&gt;code</title>
<path fill="none" stroke="#000000" d="M1614.1134,-407.9902C1619.8426,-396.6683 1627.3317,-381.8683 1633.7159,-369.252"/>
<polygon fill="#000000" stroke="#000000" points="1636.9428,-370.6267 1638.335,-360.1237 1630.6969,-367.4661 1636.9428,-370.6267"/>
</g>
<!-- reg -->
<g id="node25" class="node">
<title>reg</title>
<ellipse fill="none" stroke="#000000" cx="1719" cy="-343" rx="27" ry="18"/>
<text text-anchor="middle" x="1719" y="-339.3" font-family="Times,serif" font-size="14.00" fill="#000000">reg</text>
</g>
<!-- custom&#45;&gt;reg -->
<g id="edge23" class="edge">
<title>custom&#45;&gt;reg</title>
<path fill="none" stroke="#000000" d="M1629.7363,-407.9902C1648.2491,-394.5116 1673.5323,-376.1037 1692.4652,-362.3192"/>
<polygon fill="#000000" stroke="#000000" points="1694.6459,-365.0609 1700.6701,-356.3455 1690.5257,-359.4019 1694.6459,-365.0609"/>
</g>
<!-- reg_s -->
<g id="node27" class="node">
<title>reg_s</title>
<ellipse fill="none" stroke="#000000" cx="1678" cy="-260" rx="29.795" ry="18"/>
<text text-anchor="middle" x="1678" y="-256.3" font-family="Times,serif" font-size="14.00" fill="#000000">reg_s</text>
</g>
<!-- reg&#45;&gt;reg_s -->
<g id="edge25" class="edge">
<title>reg&#45;&gt;reg_s</title>
<path fill="none" stroke="#000000" d="M1710.5048,-325.8023C1704.9349,-314.5267 1697.5394,-299.5553 1691.2099,-286.742"/>
<polygon fill="#000000" stroke="#000000" points="1694.1924,-284.8768 1686.6254,-277.4612 1687.9163,-287.9771 1694.1924,-284.8768"/>
</g>
<!-- reg_m -->
<g id="node28" class="node">
<title>reg_m</title>
<ellipse fill="none" stroke="#000000" cx="1760" cy="-260" rx="33.5952" ry="18"/>
<text text-anchor="middle" x="1760" y="-256.3" font-family="Times,serif" font-size="14.00" fill="#000000">reg_m</text>
</g>
<!-- reg&#45;&gt;reg_m -->
<g id="edge26" class="edge">
<title>reg&#45;&gt;reg_m</title>
<path fill="none" stroke="#000000" d="M1727.4952,-325.8023C1733.0651,-314.5267 1740.4606,-299.5553 1746.7901,-286.742"/>
<polygon fill="#000000" stroke="#000000" points="1750.0837,-287.9771 1751.3746,-277.4612 1743.8076,-284.8768 1750.0837,-287.9771"/>
</g>
<!-- wrong_url -->
<g id="node29" class="node">
<title>wrong_url</title>
<ellipse fill="none" stroke="#000000" stroke-dasharray="5,2" cx="1185" cy="-499" rx="47.3916" ry="18"/>
<text text-anchor="middle" x="1185" y="-495.3" font-family="Times,serif" font-size="14.00" fill="#000000">wrong_url</text>
</g>
<!-- wrong_url&#45;&gt;url -->
<g id="edge27" class="edge">
<title>wrong_url&#45;&gt;url</title>
<path fill="none" stroke="#000000" d="M1139.5052,-493.3326C1027.1757,-479.3393 738.3653,-443.3612 635.8078,-430.5853"/>
<polygon fill="#000000" stroke="#000000" points="635.9913,-427.0812 625.6353,-429.3181 635.1259,-434.0275 635.9913,-427.0812"/>
</g>
<!-- http_status -->
<g id="node31" class="node">
<title>http_status</title>
<ellipse fill="none" stroke="#000000" cx="939" cy="-260" rx="48.9926" ry="18"/>
<text text-anchor="middle" x="939" y="-256.3" font-family="Times,serif" font-size="14.00" fill="#000000">http_status</text>
</g>
<!-- web&#45;&gt;http_status -->
<g id="edge30" class="edge">
<title>web&#45;&gt;http_status</title>
<path fill="none" stroke="#000000" d="M865.3966,-324.9902C879.0644,-312.9218 897.2078,-296.9016 912.0608,-283.7867"/>
<polygon fill="#000000" stroke="#000000" points="914.7452,-286.0857 919.9246,-276.8432 910.1119,-280.8384 914.7452,-286.0857"/>
</g>
<!-- text -->
<g id="node32" class="node">
<title>text</title>
<ellipse fill="none" stroke="#000000" cx="1033" cy="-260" rx="27" ry="18"/>
<text text-anchor="middle" x="1033" y="-256.3" font-family="Times,serif" font-size="14.00" fill="#000000">text</text>
</g>
<!-- web&#45;&gt;text -->
<g id="edge31" class="edge">
<title>web&#45;&gt;text</title>
<path fill="none" stroke="#000000" d="M872.1219,-331.9738C902.6934,-319.4131 953.7715,-298.0285 997,-278 998.7594,-277.1848 1000.5604,-276.3349 1002.3733,-275.4673"/>
<polygon fill="#000000" stroke="#000000" points="1003.9481,-278.5933 1011.3993,-271.0613 1000.8774,-272.3028 1003.9481,-278.5933"/>
</g>
<!-- html -->
<g id="node33" class="node">
<title>html</title>
<ellipse fill="none" stroke="#000000" cx="1105" cy="-260" rx="27.0966" ry="18"/>
<text text-anchor="middle" x="1105" y="-256.3" font-family="Times,serif" font-size="14.00" fill="#000000">html</text>
</g>
<!-- web&#45;&gt;html -->
<g id="edge32" class="edge">
<title>web&#45;&gt;html</title>
<path fill="none" stroke="#000000" d="M872.0722,-336.8288C914.7171,-326.7351 999.8054,-305.0799 1069,-278 1070.8057,-277.2933 1072.643,-276.5283 1074.4837,-275.726"/>
<polygon fill="#000000" stroke="#000000" points="1075.9902,-278.8855 1083.5865,-271.5 1073.0425,-272.5363 1075.9902,-278.8855"/>
</g>
<!-- redirects -->
<g id="node34" class="node">
<title>redirects</title>
<ellipse fill="none" stroke="#000000" cx="599" cy="-260" rx="40.8928" ry="18"/>
<text text-anchor="middle" x="599" y="-256.3" font-family="Times,serif" font-size="14.00" fill="#000000">redirects</text>
</g>
<!-- web&#45;&gt;redirects -->
<g id="edge33" class="edge">
<title>web&#45;&gt;redirects</title>
<path fill="none" stroke="#000000" d="M817.9786,-334.2784C780.1096,-322.0011 709.1407,-298.7939 649,-278 646.128,-277.007 643.1674,-275.9716 640.1884,-274.921"/>
<polygon fill="#000000" stroke="#000000" points="641.2924,-271.5989 630.6977,-271.5478 638.9481,-278.1947 641.2924,-271.5989"/>
</g>
<!-- x_frame_options -->
<g id="node35" class="node">
<title>x_frame_options</title>
<ellipse fill="none" stroke="#000000" cx="729" cy="-260" rx="70.6878" ry="18"/>
<text text-anchor="middle" x="729" y="-256.3" font-family="Times,serif" font-size="14.00" fill="#000000">x_frame_options</text>
</g>
<!-- web&#45;&gt;x_frame_options -->
<g id="edge34" class="edge">
<title>web&#45;&gt;x_frame_options</title>
<path fill="none" stroke="#000000" d="M819.8297,-324.9902C802.6101,-312.6693 779.6339,-296.2294 761.0989,-282.9673"/>
<polygon fill="#000000" stroke="#000000" points="763.1012,-280.0964 752.932,-277.1237 759.0279,-285.7892 763.1012,-280.0964"/>
</g>
<!-- csp -->
<g id="node36" class="node">
<title>csp</title>
<ellipse fill="none" stroke="#000000" cx="845" cy="-260" rx="27" ry="18"/>
<text text-anchor="middle" x="845" y="-256.3" font-family="Times,serif" font-size="14.00" fill="#000000">csp</text>
</g>
<!-- web&#45;&gt;csp -->
<g id="edge35" class="edge">
<title>web&#45;&gt;csp</title>
<path fill="none" stroke="#000000" d="M845,-324.9902C845,-314.2963 845,-300.4994 845,-288.3706"/>
<polygon fill="#000000" stroke="#000000" points="848.5001,-288.2612 845,-278.2612 841.5001,-288.2613 848.5001,-288.2612"/>
</g>
<!-- redirects&#45;&gt;url -->
<g id="edge51" class="edge">
<title>redirects&#45;&gt;url</title>
<path fill="none" stroke="#000000" stroke-dasharray="5,2" d="M599,-278.0586C599,-306.8575 599,-363.4195 599,-397.6526"/>
<polygon fill="#000000" stroke="#000000" points="595.5001,-397.9191 599,-407.9191 602.5001,-397.9191 595.5001,-397.9191"/>
</g>
<!-- spf -->
<g id="node38" class="node">
<title>spf</title>
<ellipse fill="none" stroke="#000000" cx="737" cy="-187" rx="27" ry="18"/>
<text text-anchor="middle" x="737" y="-183.3" font-family="Times,serif" font-size="14.00" fill="#000000">spf</text>
</g>
<!-- dns&#45;&gt;spf -->
<g id="edge37" class="edge">
<title>dns&#45;&gt;spf</title>
<path fill="none" stroke="#000000" d="M468.1582,-245.3642C471.0927,-244.103 474.0754,-242.9487 477,-242 572.981,-210.8653 605.019,-236.1347 701,-205 702.8943,-204.3855 704.813,-203.6848 706.7273,-202.9245"/>
<polygon fill="#000000" stroke="#000000" points="708.4068,-206.0084 716.1269,-198.7523 705.5668,-199.6104 708.4068,-206.0084"/>
</g>
<!-- txt -->
<g id="node39" class="node">
<title>txt</title>
<ellipse fill="none" stroke="#000000" cx="809" cy="-187" rx="27" ry="18"/>
<text text-anchor="middle" x="809" y="-183.3" font-family="Times,serif" font-size="14.00" fill="#000000">txt</text>
</g>
<!-- dns&#45;&gt;txt -->
<g id="edge38" class="edge">
<title>dns&#45;&gt;txt</title>
<path fill="none" stroke="#000000" d="M468.121,-245.2455C471.0627,-244.0074 474.0573,-242.891 477,-242 540.4453,-222.7903 709.5547,-224.2097 773,-205 774.906,-204.4229 776.8339,-203.7512 778.755,-203.0131"/>
<polygon fill="#000000" stroke="#000000" points="780.4097,-206.1098 788.1732,-198.9002 777.6082,-199.6948 780.4097,-206.1098"/>
</g>
<!-- a -->
<g id="node40" class="node">
<title>a</title>
<ellipse fill="none" stroke="#000000" cx="365" cy="-187" rx="27" ry="18"/>
<text text-anchor="middle" x="365" y="-183.3" font-family="Times,serif" font-size="14.00" fill="#000000">a</text>
</g>
<!-- dns&#45;&gt;a -->
<g id="edge39" class="edge">
<title>dns&#45;&gt;a</title>
<path fill="none" stroke="#000000" d="M422.2135,-241.9551C411.7848,-231.938 398.7361,-219.4044 387.7347,-208.8373"/>
<polygon fill="#000000" stroke="#000000" points="390.1394,-206.294 380.5029,-201.8909 385.2903,-211.3424 390.1394,-206.294"/>
</g>
<!-- aaaa -->
<g id="node41" class="node">
<title>aaaa</title>
<ellipse fill="none" stroke="#000000" cx="437" cy="-187" rx="27" ry="18"/>
<text text-anchor="middle" x="437" y="-183.3" font-family="Times,serif" font-size="14.00" fill="#000000">aaaa</text>
</g>
<!-- dns&#45;&gt;aaaa -->
<g id="edge40" class="edge">
<title>dns&#45;&gt;aaaa</title>
<path fill="none" stroke="#000000" d="M440.0112,-241.9551C439.5689,-233.8828 439.0371,-224.1764 438.5442,-215.1817"/>
<polygon fill="#000000" stroke="#000000" points="442.0332,-214.8839 437.9913,-205.0904 435.0437,-215.2669 442.0332,-214.8839"/>
</g>
<!-- ns -->
<g id="node42" class="node">
<title>ns</title>
<ellipse fill="none" stroke="#000000" cx="509" cy="-187" rx="27" ry="18"/>
<text text-anchor="middle" x="509" y="-183.3" font-family="Times,serif" font-size="14.00" fill="#000000">ns</text>
</g>
<!-- dns&#45;&gt;ns -->
<g id="edge41" class="edge">
<title>dns&#45;&gt;ns</title>
<path fill="none" stroke="#000000" d="M457.809,-241.9551C466.8351,-232.2652 478.0548,-220.2205 487.6881,-209.879"/>
<polygon fill="#000000" stroke="#000000" points="490.4278,-212.0728 494.6828,-202.3699 485.3057,-207.3016 490.4278,-212.0728"/>
</g>
<!-- mx -->
<g id="node43" class="node">
<title>mx</title>
<ellipse fill="none" stroke="#000000" cx="581" cy="-187" rx="27" ry="18"/>
<text text-anchor="middle" x="581" y="-183.3" font-family="Times,serif" font-size="14.00" fill="#000000">mx</text>
</g>
<!-- dns&#45;&gt;mx -->
<g id="edge42" class="edge">
<title>dns&#45;&gt;mx</title>
<path fill="none" stroke="#000000" d="M468.3258,-245.7516C492.0342,-233.3893 526.3039,-215.5201 550.8153,-202.7391"/>
<polygon fill="#000000" stroke="#000000" points="552.4407,-205.8389 559.6894,-198.1119 549.2042,-199.632 552.4407,-205.8389"/>
</g>
<!-- dmarc -->
<g id="node44" class="node">
<title>dmarc</title>
<ellipse fill="none" stroke="#000000" cx="659" cy="-187" rx="33.2948" ry="18"/>
<text text-anchor="middle" x="659" y="-183.3" font-family="Times,serif" font-size="14.00" fill="#000000">dmarc</text>
</g>
<!-- dns&#45;&gt;dmarc -->
<g id="edge43" class="edge">
<title>dns&#45;&gt;dmarc</title>
<path fill="none" stroke="#000000" d="M468.2573,-245.6468C471.1725,-244.3304 474.1236,-243.086 477,-242 537.21,-219.2671 556.1483,-225.9545 617,-205 619.2784,-204.2154 621.6074,-203.3636 623.9429,-202.4716"/>
<polygon fill="#000000" stroke="#000000" points="625.4921,-205.6213 633.4679,-198.6472 622.8838,-199.1253 625.4921,-205.6213"/>
</g>
<!-- email&#45;&gt;hostname -->
<g id="edge45" class="edge">
<title>email&#45;&gt;hostname</title>
<path fill="none" stroke="#000000" d="M130.1554,-45.5152C94.0375,-52.8676 38,-71.1755 38,-114 38,-260 38,-260 38,-260 38,-295.2495 277.5763,-325.4844 387.2894,-337.4823"/>
<polygon fill="#000000" stroke="#000000" points="387.1705,-340.9898 397.489,-338.586 387.9236,-334.0304 387.1705,-340.9898"/>
</g>
<!-- country_name&#45;&gt;whois -->
<g id="edge46" class="edge">
<title>country_name&#45;&gt;whois</title>
<path fill="none" stroke="#000000" d="M661.2192,-59.2961C658.1207,-80.3945 649.7041,-114.4226 627,-132 576.5018,-171.0955 408.2235,-151.5612 330.0815,-169.5801"/>
<polygon fill="#000000" stroke="#000000" points="328.8771,-166.2791 320.1202,-172.243 330.6849,-173.0417 328.8771,-166.2791"/>
</g>
<!-- phone -->
<g id="node47" class="node">
<title>phone</title>
<ellipse fill="none" stroke="#000000" stroke-dasharray="5,2" cx="359" cy="-260" rx="32.4942" ry="18"/>
<text text-anchor="middle" x="359" y="-256.3" font-family="Times,serif" font-size="14.00" fill="#000000">phone</text>
</g>
<!-- phone&#45;&gt;whois -->
<g id="edge48" class="edge">
<title>phone&#45;&gt;whois</title>
<path fill="none" stroke="#000000" d="M344.3525,-243.7989C336.121,-234.6944 325.6557,-223.1192 316.3232,-212.7969"/>
<polygon fill="#000000" stroke="#000000" points="318.7658,-210.2797 309.4631,-205.2092 313.5734,-214.9742 318.7658,-210.2797"/>
</g>
<!-- tld&#45;&gt;whois -->
<g id="edge52" class="edge">
<title>tld&#45;&gt;whois</title>
<path fill="none" stroke="#000000" d="M284.7191,-241.9551C285.9355,-233.8828 287.3981,-224.1764 288.7534,-215.1817"/>
<polygon fill="#000000" stroke="#000000" points="292.2449,-215.5003 290.2741,-205.0904 285.323,-214.4572 292.2449,-215.5003"/>
</g>
<!-- timestamp -->
<g id="node49" class="node">
<title>timestamp</title>
<ellipse fill="none" stroke="#000000" stroke-dasharray="5,2" cx="1846" cy="-582" rx="48.1917" ry="18"/>
<text text-anchor="middle" x="1846" y="-578.3" font-family="Times,serif" font-size="14.00" fill="#000000">timestamp</text>
</g>
<!-- formatted_time -->
<g id="node50" class="node">
<title>formatted_time</title>
<ellipse fill="none" stroke="#000000" cx="1652" cy="-499" rx="65.7887" ry="18"/>
<text text-anchor="middle" x="1652" y="-495.3" font-family="Times,serif" font-size="14.00" fill="#000000">formatted_time</text>
</g>
<!-- timestamp&#45;&gt;formatted_time -->
<g id="edge53" class="edge">
<title>timestamp&#45;&gt;formatted_time</title>
<path fill="none" stroke="#000000" d="M1813.9648,-568.2942C1782.0551,-554.6421 1732.7861,-533.5631 1696.9651,-518.2376"/>
<polygon fill="#000000" stroke="#000000" points="1698.2768,-514.992 1687.7062,-514.2763 1695.5233,-521.4278 1698.2768,-514.992"/>
<text text-anchor="middle" x="1768" y="-538" font-family="Times,serif" font-size="10.00" fill="#000000">fmt</text>
</g>
<!-- isotimestamp -->
<g id="node51" class="node">
<title>isotimestamp</title>
<ellipse fill="none" stroke="#000000" cx="1794" cy="-499" rx="58.4896" ry="18"/>
<text text-anchor="middle" x="1794" y="-495.3" font-family="Times,serif" font-size="14.00" fill="#000000">isotimestamp</text>
</g>
<!-- timestamp&#45;&gt;isotimestamp -->
<g id="edge54" class="edge">
<title>timestamp&#45;&gt;isotimestamp</title>
<path fill="none" stroke="#000000" d="M1834.9721,-564.3978C1827.9191,-553.1401 1818.6362,-538.3232 1810.69,-525.6399"/>
<polygon fill="#000000" stroke="#000000" points="1813.4664,-523.479 1805.1912,-516.8629 1807.5345,-527.1954 1813.4664,-523.479"/>
</g>
<!-- date -->
<g id="node52" class="node">
<title>date</title>
<ellipse fill="none" stroke="#000000" cx="1897" cy="-499" rx="27" ry="18"/>
<text text-anchor="middle" x="1897" y="-495.3" font-family="Times,serif" font-size="14.00" fill="#000000">date</text>
</g>
<!-- timestamp&#45;&gt;date -->
<g id="edge55" class="edge">
<title>timestamp&#45;&gt;date</title>
<path fill="none" stroke="#000000" d="M1856.8158,-564.3978C1863.9214,-552.8338 1873.3346,-537.5142 1881.2641,-524.6094"/>
<polygon fill="#000000" stroke="#000000" points="1884.4683,-526.0801 1886.7216,-515.7276 1878.5042,-522.4154 1884.4683,-526.0801"/>
</g>
<!-- time -->
<g id="node53" class="node">
<title>time</title>
<ellipse fill="none" stroke="#000000" cx="1969" cy="-499" rx="27" ry="18"/>
<text text-anchor="middle" x="1969" y="-495.3" font-family="Times,serif" font-size="14.00" fill="#000000">time</text>
</g>
<!-- timestamp&#45;&gt;time -->
<g id="edge56" class="edge">
<title>timestamp&#45;&gt;time</title>
<path fill="none" stroke="#000000" d="M1869.4249,-566.193C1889.8862,-552.3858 1919.6178,-532.323 1941.2632,-517.7167"/>
<polygon fill="#000000" stroke="#000000" points="1943.3726,-520.5157 1949.7041,-512.0208 1939.4571,-514.7132 1943.3726,-520.5157"/>
</g>
<!-- unit -->
<g id="node54" class="node">
<title>unit</title>
<ellipse fill="none" stroke="#000000" stroke-dasharray="5,2" cx="1570" cy="-582" rx="27" ry="18"/>
<text text-anchor="middle" x="1570" y="-578.3" font-family="Times,serif" font-size="14.00" fill="#000000">unit</text>
</g>
<!-- unit&#45;&gt;plaintext -->
<g id="edge57" class="edge">
<title>unit&#45;&gt;plaintext</title>
<path fill="none" stroke="#000000" d="M1550.9889,-558.0921C1542.4813,-547.3932 1532.4515,-534.7799 1523.8477,-523.96"/>
<polygon fill="#000000" stroke="#000000" points="1548.3111,-560.3481 1557.2745,-565.9968 1553.7901,-555.9913 1548.3111,-560.3481"/>
<polygon fill="#000000" stroke="#000000" points="1526.5587,-521.7457 1517.5952,-516.097 1521.0797,-526.1025 1526.5587,-521.7457"/>
<text text-anchor="middle" x="1549.5" y="-538" font-family="Times,serif" font-size="10.00" fill="#000000">unit</text>
</g>
<!-- ports -->
<g id="node56" class="node">
<title>ports</title>
<ellipse fill="none" stroke="#d3d3d3" cx="883" cy="-187" rx="28.6953" ry="18"/>
<text text-anchor="middle" x="883" y="-183.3" font-family="Times,serif" font-size="14.00" fill="#d3d3d3">ports</text>
</g>
<!-- nmap&#45;&gt;ports -->
<g id="edge59" class="edge">
<title>nmap&#45;&gt;ports</title>
<path fill="none" stroke="#d3d3d3" d="M540.121,-245.2455C543.0627,-244.0074 546.0573,-242.891 549,-242 675.8906,-203.5806 717.7079,-242.0675 845,-205 847.164,-204.3699 849.3587,-203.6299 851.5453,-202.8157"/>
<polygon fill="#d3d3d3" stroke="#d3d3d3" points="853.0817,-205.9671 860.9591,-198.8821 850.3828,-199.5083 853.0817,-205.9671"/>
</g>
<!-- HostnameTld -->
<g id="node57" class="node">
<title>HostnameTld</title>
<ellipse fill="none" stroke="#d3d3d3" cx="1971" cy="-582" rx="59.2899" ry="18"/>
<text text-anchor="middle" x="1971" y="-578.3" font-family="Times,serif" font-size="14.00" fill="#d3d3d3">HostnameTld</text>
</g>
<!-- first_method -->
<g id="node58" class="node">
<title>first_method</title>
<ellipse fill="none" stroke="#d3d3d3" cx="2104" cy="-582" rx="55.7903" ry="18"/>
<text text-anchor="middle" x="2104" y="-578.3" font-family="Times,serif" font-size="14.00" fill="#d3d3d3">first_method</text>
</g>
<!-- second_method -->
<g id="node59" class="node">
<title>second_method</title>
<ellipse fill="none" stroke="#d3d3d3" cx="2244" cy="-582" rx="66.0889" ry="18"/>
<text text-anchor="middle" x="2244" y="-578.3" font-family="Times,serif" font-size="14.00" fill="#d3d3d3">second_method</text>
</g>
</g>
</svg>
